<svg xmlns="http://www.w3.org/2000/svg" width="3413" height="1024" viewBox="0 0 3413 1024"><path d="M2309.393 337.446c-22.528-22.098-43.349-42.069-64.171-62.467-9.762-9.774-19.968-19.121-29.321-29.321-11.042-11.474-8.926-21.248 5.53-27.622 23.364-10.622 46.319-6.798 69.257 2.125 11.486 4.25 21.248-2.125 20.412-14.022 0-1.7-1.28-3.825-2.56-4.675-29.747-17.423-73.933-21.673-104.96-.85-23.364 15.722-25.498 37.395-8.073 59.068 2.543 2.975 4.676 5.948 7.219 8.497-9.762 5.1-19.115 9.774-28.467 14.449-38.246 18.698-38.246 79.041 4.676 99.437 39.936 19.123 79.462 17.848 117.282-5.524 8.499-5.1 14.455-7.224 21.675 1.7 7.219 8.499 15.292 15.724 23.791 23.373 5.103 4.675 5.103 7.649-.853 11.897-29.321 21.673-62.464 32.722-98.577 30.597-64.597-3.825-112.179-35.695-138.103-95.613-29.747-69.692-6.383-155.105 64.154-195.05 60.774-34.421 120.695-30.596 175.94 11.473 43.332 32.721 62.037 78.615 59.068 133.008-1.707 31.445-12.322 59.068-30.601 84.139-5.53 8.074-10.206 9.349-16.998 1.7-7.219-8.074-15.718-15.724-23.791-23.371-4.676-4.25-4.676-8.074-.853-12.749 7.219-8.499 13.602-17.423 20.395-26.348 7.219-9.347-.427-12.747-6.793-17.422-7.663-5.949-10.633-.85-14.455 4.675-5.53 8.922-12.322 17.847-20.821 28.896zM734.116 539.718c0-41.219.425-82.441 0-123.66 0-11.047 2.975-14.447 14.449-14.447 50.144.425 100.287 0 150.431.425 29.322.425 53.543 11.897 67.142 38.67 14.447 28.471 12.322 56.518-8.924 81.589-7.649 8.924-8.074 13.174 2.125 21.248 45.044 36.12 35.27 105.812-17.848 128.333-9.774 4.25-20.821 6.374-31.445 6.799-54.818.85-109.636 0-164.454.425-9.774 0-11.474-4.25-11.474-12.324V539.718zm106.236 115.159c24.223-.425 48.444.85 72.666-.425 42.494-2.125 60.768-44.194 43.769-78.189-9.349-18.698-27.197-25.921-47.169-26.346-47.169-.85-93.913-.425-141.082-.85-8.499 0-11.899 2.55-11.899 11.472a2720.6 2720.6 0 010 83.29c0 8.497 2.975 11.472 11.474 11.472 24.646-.425 48.444-.425 72.24-.425zm-4.674-229.47h-67.14c-6.799 0-11.049 1.7-11.049 9.349v80.739c0 6.374 3.4 9.774 10.199 9.774 44.619 0 89.663.85 134.282-.425 28.471-.85 47.169-20.396 49.294-43.769 3.4-35.695-22.946-54.818-52.693-55.668-21.246-.425-42.069 0-62.892 0zM1204.954 169.591c-19.548-11.474-36.547-24.647-55.668-32.296-56.943-23.797-129.183-11.898-166.579 37.82-19.971 26.771-26.346 56.943-21.671 90.088 6.799 52.693 48.019 87.963 90.938 98.587 52.268 12.749 97.737-2.125 138.957-34.42 3.825-2.975 7.649-6.374 11.899-9.349 1.7.85 2.975 1.275 4.25 2.125 14.022 12.324 14.022 13.174-.425 25.496-37.821 31.447-80.741 47.594-129.609 44.619-62.041-3.825-118.984-40.794-135.557-107.085-19.546-77.341 19.973-152.981 96.887-174.653 63.317-17.848 120.26-6.374 170.829 35.27 11.047 9.349 10.197 11.048-4.25 23.797zM2248.192 652.327c-26.351-39.52-51.422-77.339-76.919-115.159-1.263 0-2.116 0-3.396.425-.853 4.25-2.116 8.922-2.116 13.172v110.911c0 19.548-.427 19.548-22.101 16.148 0-4.25-.427-8.924-.427-13.174V502.745c0-4.675 2.543-13.597 5.103-14.022 8.073-1.275 17.425-3.825 23.791 5.949 15.718 24.221 31.454 48.019 47.172 72.24 6.383 9.774 13.175 19.973 19.541 29.745 8.073 12.749 9.779 12.749 17.852.425 21.248-31.445 42.069-63.316 62.891-94.763 5.53-8.497 10.633-16.572 23.381-14.872 7.219.85 10.615 2.975 10.189 10.197-.427 11.474 0 22.948 0 34.847v133.857c0 6.799.427 12.749-9.762 12.749-9.353 0-12.749-2.55-12.749-12.324.41-39.095 0-78.614 0-117.711V536.74c-1.28-.425-2.987-1.275-4.25-1.7-25.498 38.67-51.422 76.914-78.199 117.284zM1803.708 677.825c-19.132 4.25-31.881.85-41.66-16.572-10.615-19.123-24.644-36.122-37.393-53.543-2.543-3.4-8.499-6.799-13.175-6.799-22.939-.85-45.462 0-68.408-.425-8.074 0-11.049 3.4-11.049 11.049 0 19.121-.425 38.67 0 57.793 0 8.497-3.4 10.197-11.049 10.197s-11.474-1.7-11.474-10.197V497.224c0-6.374 2.55-8.924 8.924-8.924 42.494.425 84.989-.85 127.479 1.275 21.248.85 40.806 9.774 50.142 31.022 8.073 19.121 8.073 39.095-5.939 55.243-7.236 8.497-18.278 14.447-28.894 19.971-9.779 4.675-11.059 5.949-4.676 15.299 15.718 21.671 31.01 43.769 47.172 66.715zm-108.793-165.303v-1.275h-50.993c-8.074 0-11.899 2.975-11.899 11.474a751.424 751.424 0 010 43.769c0 6.374 1.7 10.197 9.349 10.197 34.845-.425 69.272 0 104.105-.848 18.705-.425 33.143-15.724 32.734-32.297 0-16.573-14.029-30.17-32.734-30.595-16.572-.85-33.57-.425-50.562-.425zM1506.673 291.125c2.55 49.294-32.297 81.164-67.142 93.063-43.769 14.874-85.839 12.324-124.508-13.599-32.297-22.096-46.319-54.393-41.644-92.638 4.673-39.52 28.896-66.29 65.865-80.314 40.794-15.724 81.164-12.749 118.985 9.349 31.87 18.697 50.144 46.744 48.444 84.139zm-116.011 79.039c12.324-2.125 25.498-2.975 37.395-6.799 30.597-9.772 51.418-28.896 55.243-62.466 2.975-26.772-5.524-48.869-26.346-66.717-30.172-25.496-83.29-29.745-120.685-9.349-48.019 25.923-54.393 87.54-12.324 122.385 19.123 16.147 41.646 22.096 66.717 22.946zM1874.671 582.639c0-27.197.427-54.818 0-82.016 0-9.349 2.116-13.172 12.322-12.747 35.26.425 70.11.85 105.387.425 40.789-.85 69.683 32.72 79.036 65.44 6.793 24.223 5.956 47.594-2.97 70.967-14.029 35.695-42.496 51.843-78.626 53.968-34.833 2.125-70.11.425-105.387.85-7.646 0-9.762-2.975-9.762-10.199.427-28.897 0-57.793 0-86.688zm22.938.425v61.191c0 7.649 2.987 11.049 11.059 10.624 27.187-.425 53.965 0 81.152-.425 15.309 0 28.058-6.374 40.38-15.299 24.644-18.272 27.187-63.316 15.718-88.388-8.926-19.546-22.101-36.545-45.039-38.245-30.174-2.125-60.774-1.275-91.375-1.7-8.499 0-11.469 3.4-11.469 11.899 0 20.396-.427 40.369-.427 60.343zM1688.55 187.866c32.725.85 67.558 12.749 92.22 44.194 35.26 45.044 26.334 118.135-35.703 146.606-47.167 21.673-94.336 20.823-138.105-9.774-61.193-42.494-52.693-134.707 14.874-167.002 19.546-9.349 38.67-13.599 66.715-14.024zm-3.824 183.151c14.874-3.4 30.167-5.1 44.623-10.622 54.818-20.398 65.86-90.09 20.395-126.635-31.863-25.921-84.139-29.321-121.535-8.074-47.594 26.772-52.267 90.513-8.497 123.235 18.697 14.449 40.369 20.821 65.015 22.096zM1285.272 585.612c.425 48.444-33.145 82.014-75.639 93.913-38.67 10.624-76.064 8.499-111.336-12.749-35.27-21.246-50.993-53.968-47.594-94.338 3.4-37.395 25.073-64.166 59.068-79.039 48.019-21.248 94.763-17.423 137.257 14.449 25.923 19.121 38.67 45.469 38.245 77.764zm-210.772-4.675c-.425 28.472 10.624 49.719 33.57 64.167 35.695 22.521 73.516 23.371 111.336 5.524 26.771-12.324 42.069-34.422 42.494-64.592.425-31.02-14.024-53.543-41.219-67.992-27.197-14.872-56.518-17.847-86.263-8.922-34.847 10.622-61.617 36.97-59.918 71.815zM2900.053 678.248c-13.175 2.125-22.955 1.275-32.717-9.774-38.246-45.044-77.773-89.238-116.873-133.432-2.116-2.55-5.086-3.825-8.073-5.524-1.263 3.4-3.396 6.799-3.396 10.199-.427 40.794 0 81.589 0 122.383 0 19.123 0 19.123-20.821 15.724 0-4.25-.427-8.924-.427-13.174V502.747c0-4.675 2.56-13.599 3.823-13.599 8.073.425 18.278 0 23.381 4.675 17.835 17.422 33.57 36.97 49.715 55.668 23.364 26.771 46.746 53.967 70.537 80.739 2.56 2.975 5.956 5.524 11.059 9.774.41-6.799.836-11.049.836-15.724 0-41.644.427-83.289 0-124.933 0-8.924 2.56-12.324 11.913-11.899 8.499 0 12.322 2.125 12.322 11.474-.427 56.516 0 113.034-.427 169.977 0 2.975-.427 5.524-.853 9.349zM2655.317 677.825c-21.675 3.4-21.675 3.4-30.601-13.174-.427-.85-.853-1.275-1.28-1.7-22.511-39.52-8.926-31.445-56.081-32.295-27.204-.425-54.818.425-82.022-.425-10.206 0-16.572 2.55-20.821 12.324-3.823 8.499-8.926 16.147-13.602 23.796-8.926 14.874-10.189 15.299-29.747 11.049 8.073-14.449 16.145-28.896 24.218-42.919 25.924-45.469 51.422-90.513 77.346-135.982 8.499-14.874 25.498-15.299 33.997 0 31.863 56.943 63.744 114.309 95.607 171.677.427 1.7 1.28 4.25 2.987 7.649zm-116.446-166.154c-18.261 32.297-35.26 62.042-52.258 91.79 2.116 1.275 2.97 2.125 3.396 2.125 30.601.425 61.611.425 92.211.425 6.793 0 7.646-4.25 4.676-9.349-15.292-27.197-31.027-54.393-48.026-84.99zM1550.87 678.252c-21.248 2.125-21.248 2.125-30.597-15.299-17.422-32.72-17.422-32.72-54.816-32.72-27.622 0-55.668.425-83.29-.425-10.622-.425-17.422 3.4-21.671 12.749-3.4 7.223-7.649 14.022-11.899 20.821-9.349 16.148-9.349 16.148-30.595 14.449 1.275-3.4 2.125-6.374 3.825-8.924 32.295-57.368 65.015-114.736 97.312-172.102 7.223-12.749 25.071-13.174 32.295-.85 33.145 59.491 66.292 118.984 99.437 178.901.425.85 0 1.7 0 3.4zm-64.592-72.667c-1.275-3.825-1.7-5.524-2.55-7.224-13.597-24.646-27.621-49.719-41.219-74.365-5.949-10.199-8.499-10.199-14.449 0-13.172 22.946-26.346 45.894-39.095 68.842-2.125 3.398-2.975 7.223-5.1 12.747h102.412zM2052.301 382.915c-17.425 3.4-29.321 2.55-39.1-12.322-17.425-26.772-37.393-52.268-56.098-78.616-5.53-7.649-9.779-10.624-17.852-2.125-11.042 11.474-23.791 21.673-34.833 33.572-4.25 4.673-6.81 11.472-7.663 17.847-1.263 11.474-.836 22.948-.41 34.422.41 9.772-5.956 8.922-12.322 8.922-6.81 0-11.913 0-11.913-9.347.427-56.943.427-113.886 0-170.829 0-8.924 4.25-10.199 11.486-9.774 6.793.425 13.158-.425 12.749 9.774-.427 25.073 0 50.144 0 75.215 0 4.25.41 8.074.836 14.874 5.53-3.825 9.353-5.949 12.322-8.924 26.778-24.646 54.409-48.869 79.889-74.365 14.029-14.024 29.338-19.973 50.569-14.449-24.644 22.948-48.862 45.469-73.933 68.842 28.467 38.67 56.525 76.914 86.272 117.284z"/><path d="M2283.913 356.142c-17.425 14.024-42.496 18.698-68.847 13.174-10.206-2.125-20.821-5.524-29.321-11.474-20.395-14.447-22.955-38.67.427-53.543 10.189-6.374 22.101-9.772 33.57-14.022 2.116-.85 6.366.85 8.073 2.55 18.705 20.821 36.966 41.644 56.098 63.316z"/><path fill="#fff" d="M840.358 654.879c-23.796 0-48.019-.425-71.815 0-8.499 0-11.899-2.975-11.474-11.474a2720.6 2720.6 0 000-83.29c0-8.497 3.4-11.472 11.899-11.472 47.169.425 93.913 0 141.082.85 19.546.425 37.82 7.649 47.169 26.346 16.997 33.995-.85 76.066-43.769 78.191-24.223 1.7-48.869.85-73.091.85zM835.698 425.407c20.821 0 41.644-.425 62.467 0 30.17.425 56.091 19.548 52.693 55.668-2.125 23.798-20.823 42.919-49.294 43.769-44.621 1.7-89.665.425-134.284.425-6.799 0-10.197-3.4-10.197-9.774v-80.739c0-7.649 4.248-9.774 11.047-9.349h67.567zM1694.93 512.521c16.993 0 33.992-.425 50.99 0 18.705.85 32.717 14.449 32.717 30.595 0 16.573-14.438 31.872-32.717 32.297-34.85.85-69.263.425-104.108.85-7.224 0-9.349-3.825-9.349-10.199 0-14.449.425-29.321 0-43.769-.425-8.499 3.825-11.474 11.899-11.474h50.993c-.425.85-.425 1.275-.425 1.7zM1390.659 370.164c-25.071-.85-47.594-6.799-67.14-22.946-42.071-34.847-35.697-96.463 12.322-122.385 37.396-20.396 90.515-16.148 120.685 9.349 20.821 17.423 29.321 39.945 26.346 66.717-3.825 33.57-25.071 52.692-55.243 62.466-11.472 3.825-24.221 4.675-36.97 6.799zM1897.626 583.062c0-19.973.427-39.946 0-59.918 0-8.499 2.97-11.899 11.469-11.899 30.601.425 61.201-.425 91.375 1.7 23.364 1.7 36.113 18.273 45.039 38.245 11.469 25.073 8.926 70.117-15.718 88.39-11.913 8.922-25.071 15.297-40.38 15.297-27.187.425-53.965 0-81.169.425-8.073 0-11.042-2.975-11.042-10.624.427-20.821.427-41.219.427-61.616zM1684.712 371.014c-24.648-.85-46.321-7.648-65.442-21.671-43.344-32.72-39.095-96.038 8.499-123.235 37.395-21.246 89.667-17.847 121.53 8.074 45.466 36.545 34.423 105.812-20.395 126.635-14.029 4.675-29.321 6.798-44.192 10.197zM1074.511 580.937c-1.7-34.845 25.071-61.617 60.341-71.815 29.322-8.924 58.643-5.949 86.265 8.922 26.771 14.449 41.219 37.396 41.219 67.992-.425 30.595-15.724 52.268-42.494 64.592-37.395 17.422-75.216 16.572-111.336-5.524-23.373-14.024-34.42-35.272-33.995-64.167zM2538.854 511.671c17.425 30.597 32.717 57.793 48.009 84.989 2.987 5.1 2.133 9.349-4.659 9.349-30.601 0-61.628-.425-92.228-.425-.41 0-1.263-.85-3.396-2.125 16.572-29.745 33.57-59.493 52.275-91.788zM1486.263 605.587h-102.412c2.125-5.1 2.975-8.924 5.098-12.749 13.174-22.948 25.923-45.894 39.096-68.842 5.949-10.197 8.499-10.622 14.447 0 14.024 24.648 27.622 49.294 41.221 74.366.85 1.275 1.275 3.4 2.55 7.224z"/><path d="M2296.149 839.939h43.486v56.851c-2.901.949-5.82 1.824-8.772 2.625a121.27 121.27 0 01-9.216 1.949c-3.157.5-6.485.901-9.984 1.2-3.447.3-7.117.451-11.025.451-8.192 0-15.479-1.2-21.828-3.599-6.298-2.451-11.622-6.05-15.974-10.8-4.301-4.801-7.561-10.701-9.813-17.7-2.253-7.05-3.379-15.176-3.379-24.376 0-8.6 1.246-16.374 3.755-23.325 2.492-6.95 6.161-12.849 11.025-17.7 4.898-4.9 10.889-8.649 17.988-11.25 7.151-2.649 15.326-3.975 24.525-3.975 5.854 0 11.588.626 17.186 1.876s10.718 2.876 15.377 4.874l-7.731 18.601c-3.396-1.7-7.253-3.125-11.554-4.275-4.25-1.15-8.721-1.725-13.414-1.725-5.103 0-9.711.901-13.807 2.7-4.045 1.751-7.526 4.25-10.428 7.501-2.901 3.249-5.12 7.175-6.673 11.774s-2.321 9.725-2.321 15.375c0 5.4.529 10.349 1.57 14.85 1.109 4.451 2.799 8.3 5.103 11.551 2.304 3.249 5.257 5.774 8.841 7.574 3.652 1.801 8.004 2.7 13.056 2.7 3.294 0 6.076-.15 8.329-.449 2.304-.3 4.454-.65 6.451-1.051v-22.874h-20.77v-19.35zm108.271.601h6.315c6.434 0 11.059-1.275 13.875-3.826 2.799-2.599 4.198-6.4 4.198-11.399 0-5.2-1.502-8.9-4.506-11.1s-7.646-3.301-13.943-3.301h-5.939v29.626zm0 18.9v42.074h-23.245v-109.65h30.003c14.046 0 24.422 2.726 31.13 8.175 6.69 5.4 10.035 13.626 10.035 24.675 0 3.75-.495 7.151-1.485 10.201-1.007 3.05-2.355 5.775-4.062 8.175a30.605 30.605 0 01-5.769 6.224 36.7 36.7 0 01-6.827 4.425c5.547 8.9 10.53 16.85 14.933 23.851a684.373 684.373 0 015.461 8.774c1.809 2.85 3.413 5.4 4.813 7.651 1.399 2.249 2.543 4.05 3.447 5.4l1.263 2.099h-25.788l-23.774-42.074h-10.138zm182.323-12.901c0 8.45-1.007 16.15-3.004 23.1-1.946 6.951-4.949 12.901-9.011 17.85-4.045 4.951-9.165 8.776-15.36 11.476-6.161 2.7-13.431 4.05-21.828 4.05s-15.701-1.35-21.897-4.05c-6.161-2.7-11.264-6.525-15.309-11.476-3.994-4.949-6.997-10.899-8.994-17.85-1.946-6.999-2.935-14.749-2.935-23.25 0-8.499.99-16.2 2.935-23.1 1.997-6.95 5.018-12.875 9.062-17.775 4.062-4.9 9.165-8.675 15.309-11.325 6.195-2.7 13.517-4.05 21.982-4.05 8.397 0 15.667 1.35 21.811 4.05 6.161 2.65 11.23 6.451 15.223 11.401 4.062 4.9 7.066 10.825 9.011 17.775 1.997 6.9 3.004 14.626 3.004 23.175zm-74.41 0c0 5.75.512 10.926 1.502 15.526 1.007 4.55 2.526 8.424 4.574 11.624 2.099 3.151 4.727 5.576 7.885 7.276 3.14 1.7 6.895 2.55 11.247 2.55 4.454 0 8.243-.85 11.401-2.55 3.191-1.7 5.803-4.125 7.799-7.276 2.048-3.2 3.55-7.074 4.489-11.624 1.007-4.599 1.502-9.776 1.502-15.526s-.495-10.899-1.502-15.449c-.939-4.601-2.441-8.501-4.489-11.701-1.997-3.2-4.574-5.649-7.731-7.351-3.14-1.7-6.929-2.55-11.315-2.55-4.352 0-8.124.85-11.332 2.55-3.191 1.702-5.854 4.151-7.953 7.351-2.048 3.2-3.567 7.1-4.574 11.701-.99 4.55-1.502 9.699-1.502 15.449zm195.516-54.675v70.95c0 5.7-.87 11.001-2.628 15.901-1.707 4.9-4.318 9.149-7.868 12.751-3.499 3.599-7.902 6.424-13.21 8.474-5.291 2.051-11.52 3.075-18.671 3.075-6.758 0-12.732-.951-17.92-2.85-5.154-1.949-9.472-4.7-12.988-8.25-3.447-3.55-6.076-7.799-7.868-12.751-1.792-4.999-2.697-10.549-2.697-16.649v-70.651h23.177v68.925c0 4.05.393 7.525 1.195 10.424.802 2.85 1.98 5.2 3.533 7.05 1.587 1.801 3.567 3.125 5.922 3.975 2.338.85 5.103 1.275 8.243 1.275 6.554 0 11.281-1.9 14.182-5.7 2.953-3.799 4.42-9.525 4.42-17.174v-68.775h23.177zm65.45 51.601h4.591c6.537 0 11.469-1.3 14.763-3.901 3.362-2.599 5.035-6.825 5.035-12.674 0-5.451-1.502-9.475-4.506-12.076-2.953-2.599-7.595-3.9-13.943-3.9h-5.939v32.551zm47.94-17.401c0 4.801-.734 9.4-2.185 13.8s-3.84 8.276-7.202 11.626c-3.294 3.35-7.663 6.025-13.124 8.025-5.393 2-12.1 3-20.105 3h-5.325v38.999h-23.245v-109.65h30.447c7.049 0 13.124.8 18.227 2.4 5.154 1.551 9.387 3.801 12.681 6.75 3.345 2.901 5.82 6.475 7.424 10.726 1.604 4.2 2.406 8.974 2.406 14.324zM565.775 292.287H542.6v-90.3h-27.525v-19.35h78.15v19.35h-27.45v90.3zm143.384 0h-23.175v-47.324H648.71v47.324h-23.252v-109.65h23.252v42.976h37.274v-42.976h23.175v109.65zm106.261 0h-63.15v-109.65h63.15v19.05h-39.9v24.076h37.125v19.05H775.52v28.274h39.9v19.2z"/></svg>