<svg width="489" height="442" viewBox="0 0 489 442" fill="none" xmlns="http://www.w3.org/2000/svg">
<circle cx="230" cy="218" r="154" stroke="#C4C2CC" stroke-width="12"/>
<path d="M250.476 373.902C249.32 373.49 248.803 372.145 249.387 371.066L267.208 338.125C268.021 336.622 270.222 336.765 270.834 338.36L288.298 383.856C288.911 385.451 287.37 387.03 285.761 386.457L250.476 373.902Z" fill="white"/>
<path d="M263.32 371.086C262.165 370.675 261.648 369.329 262.232 368.25L276.651 341.598C277.463 340.095 279.665 340.238 280.277 341.833L294.407 378.644C295.02 380.239 293.479 381.818 291.87 381.245L263.32 371.086Z" fill="#C4C2CC"/>
<path d="M420.344 206.92V229H430.2V225.48H424.28V206.92H420.344Z" fill="#00F1BE"/>
<path d="M439.609 213.32C438.713 212.36 437.433 211.848 435.801 211.848C434.297 211.848 433.081 212.296 432.153 213.128C431.193 213.992 430.745 215.24 430.745 216.904V217.032H434.169V216.776C434.169 216.264 434.297 215.88 434.585 215.56C434.841 215.272 435.225 215.112 435.705 215.112C436.217 215.112 436.601 215.272 436.857 215.592C437.113 215.912 437.273 216.36 437.273 216.936V219.08H435.865C434.073 219.08 432.697 219.528 431.737 220.392C430.777 221.256 430.297 222.472 430.297 224.04C430.297 225.704 430.649 226.984 431.353 227.88C432.057 228.808 433.145 229.256 434.553 229.256C435.225 229.256 435.769 229.128 436.217 228.872C436.633 228.616 437.081 228.168 437.529 227.592V229H440.985V217.224C440.985 215.592 440.505 214.28 439.609 213.32ZM436.793 225.48C436.473 225.864 436.089 226.024 435.641 226.024C435.097 226.024 434.681 225.864 434.425 225.48C434.137 225.128 434.009 224.584 434.009 223.88C434.009 223.112 434.201 222.536 434.585 222.184C434.969 221.864 435.545 221.672 436.313 221.672H437.273V223.944C437.273 224.584 437.113 225.096 436.793 225.48Z" fill="#00F1BE"/>
<path d="M443.606 227.784C444.342 228.776 445.718 229.256 447.766 229.256C449.142 229.256 450.198 229.032 450.966 228.584C451.734 228.136 452.246 227.464 452.566 226.632C452.854 225.8 453.014 224.68 453.014 223.336V212.104H449.302V222.568C449.302 223.528 449.27 224.2 449.206 224.616C449.142 225.064 449.014 225.384 448.822 225.608C448.598 225.832 448.246 225.928 447.766 225.928C447.254 225.928 446.902 225.8 446.71 225.544C446.486 225.288 446.358 224.968 446.294 224.52C446.23 224.104 446.23 223.464 446.23 222.568V212.104H442.518V223.336C442.518 225.32 442.87 226.792 443.606 227.784Z" fill="#00F1BE"/>
<path d="M454.543 212.104V229H458.255V216.968C458.255 216.392 458.383 215.976 458.671 215.656C458.927 215.336 459.311 215.176 459.791 215.176C460.239 215.176 460.591 215.336 460.879 215.656C461.167 215.976 461.327 216.392 461.327 216.968V229H465.039V216.936C465.039 213.544 463.663 211.848 460.911 211.848C459.823 211.848 458.863 212.36 458.095 213.352V212.104H454.543Z" fill="#00F1BE"/>
<path d="M467.848 227.816C468.744 228.776 470.088 229.256 471.848 229.256C473.512 229.256 474.824 228.808 475.72 227.88C476.616 226.952 477.064 225.544 477.064 223.656V223.112H473.48V223.656C473.48 224.424 473.32 225 473.032 225.384C472.744 225.768 472.328 225.928 471.816 225.928C471.272 225.928 470.856 225.736 470.6 225.288C470.312 224.84 470.184 224.136 470.184 223.176V217.928C470.184 216.968 470.312 216.296 470.6 215.848C470.856 215.4 471.272 215.176 471.848 215.176C472.36 215.176 472.744 215.368 473.032 215.752C473.32 216.136 473.48 216.68 473.48 217.416V217.992H477.064V217.352C477.064 215.528 476.616 214.152 475.72 213.224C474.824 212.328 473.512 211.848 471.848 211.848C470.088 211.848 468.744 212.328 467.848 213.288C466.92 214.248 466.472 215.816 466.472 217.96V223.144C466.472 225.32 466.92 226.856 467.848 227.816Z" fill="#00F1BE"/>
<path d="M478.499 206.92V229H482.211V216.968C482.211 216.392 482.339 215.976 482.627 215.656C482.883 215.336 483.267 215.176 483.747 215.176C484.195 215.176 484.547 215.336 484.835 215.656C485.123 215.976 485.283 216.392 485.283 216.968V229H488.995V216.936C488.995 215.304 488.643 214.056 488.003 213.16C487.331 212.296 486.275 211.848 484.867 211.848C483.875 211.848 482.979 212.296 482.211 213.192V206.92H478.499Z" fill="#00F1BE"/>
<path d="M0.472656 206.92V229H4.37666V206.92H0.472656Z" fill="#2B00FF"/>
<path d="M7.08041 227.944C7.84841 228.84 8.84041 229.256 10.0884 229.256C11.2084 229.256 12.1684 228.776 13.0004 227.816V229H16.5524V206.92H12.8724V213.448C12.5524 212.936 12.1684 212.552 11.6884 212.264C11.1764 212.008 10.6324 211.848 10.0244 211.848C8.77641 211.848 7.78441 212.296 7.04841 213.16C6.31241 214.056 5.96041 215.432 5.96041 217.32V223.784C5.96041 225.704 6.31241 227.08 7.08041 227.944ZM12.9364 223.176C12.9364 225.032 12.3924 225.928 11.3044 225.928C10.7284 225.928 10.3124 225.736 10.0564 225.288C9.80041 224.872 9.67241 224.168 9.67241 223.176V217.928C9.67241 216.968 9.80041 216.296 10.0564 215.848C10.3124 215.4 10.7284 215.176 11.2724 215.176C11.8164 215.176 12.2324 215.4 12.5204 215.848C12.7764 216.296 12.9364 216.968 12.9364 217.928V223.176Z" fill="#2B00FF"/>
<path d="M21.6974 221.864H28.7054V218.504C28.7054 216.264 28.2254 214.568 27.2654 213.48C26.3054 212.392 24.9934 211.848 23.2654 211.848C21.5054 211.848 20.1934 212.392 19.2974 213.448C18.4014 214.536 17.9854 216.2 17.9854 218.504V222.632C17.9854 225 18.4334 226.696 19.3934 227.72C20.3214 228.744 21.6334 229.256 23.3614 229.256C25.0254 229.256 26.3374 228.808 27.2334 227.912C28.1294 227.016 28.5774 225.672 28.5774 223.88V223.688H24.9934V223.848C24.9934 225.288 24.4494 225.992 23.3614 225.992C22.2414 225.992 21.6974 225.128 21.6974 223.4V221.864ZM22.1134 215.848C22.3694 215.4 22.7854 215.176 23.3294 215.176C23.8734 215.176 24.2894 215.4 24.5774 215.848C24.8334 216.296 24.9934 216.968 24.9934 217.928V219.176H21.6974V217.928C21.6974 216.968 21.8254 216.296 22.1134 215.848Z" fill="#2B00FF"/>
<path d="M39.0977 213.32C38.2017 212.36 36.9217 211.848 35.2897 211.848C33.7857 211.848 32.5697 212.296 31.6417 213.128C30.6817 213.992 30.2337 215.24 30.2337 216.904V217.032H33.6577V216.776C33.6577 216.264 33.7857 215.88 34.0737 215.56C34.3297 215.272 34.7137 215.112 35.1937 215.112C35.7057 215.112 36.0897 215.272 36.3457 215.592C36.6017 215.912 36.7617 216.36 36.7617 216.936V219.08H35.3537C33.5617 219.08 32.1857 219.528 31.2257 220.392C30.2657 221.256 29.7857 222.472 29.7857 224.04C29.7857 225.704 30.1377 226.984 30.8417 227.88C31.5457 228.808 32.6337 229.256 34.0417 229.256C34.7137 229.256 35.2577 229.128 35.7057 228.872C36.1217 228.616 36.5697 228.168 37.0177 227.592V229H40.4737V217.224C40.4737 215.592 39.9937 214.28 39.0977 213.32ZM36.2817 225.48C35.9617 225.864 35.5777 226.024 35.1297 226.024C34.5857 226.024 34.1697 225.864 33.9137 225.48C33.6257 225.128 33.4977 224.584 33.4977 223.88C33.4977 223.112 33.6897 222.536 34.0737 222.184C34.4577 221.864 35.0337 221.672 35.8017 221.672H36.7617V223.944C36.7617 224.584 36.6017 225.096 36.2817 225.48Z" fill="#2B00FF"/>
<path d="M197.473 413.92V436H201.377V413.92H197.473Z" fill="#2B00FF"/>
<path d="M203.056 419.104V436H206.768V423.968C206.768 423.392 206.896 422.976 207.184 422.656C207.44 422.336 207.824 422.176 208.304 422.176C208.752 422.176 209.104 422.336 209.392 422.656C209.68 422.976 209.84 423.392 209.84 423.968V436H213.552V423.936C213.552 420.544 212.176 418.848 209.424 418.848C208.336 418.848 207.376 419.36 206.608 420.352V419.104H203.056Z" fill="#2B00FF"/>
<path d="M216.169 434.912C217.129 435.808 218.409 436.256 220.073 436.256C221.705 436.256 223.017 435.808 223.977 434.88C224.937 433.952 225.449 432.736 225.449 431.264C225.449 430.048 225.161 429.088 224.649 428.32C224.105 427.552 223.241 426.912 222.025 426.368L219.945 425.472C219.337 425.216 218.921 424.96 218.729 424.64C218.505 424.352 218.409 423.968 218.409 423.52C218.409 423.008 218.537 422.624 218.825 422.336C219.113 422.08 219.497 421.92 220.009 421.92C220.521 421.92 220.905 422.112 221.225 422.432C221.513 422.784 221.673 423.296 221.673 423.936V424.128H225.257V423.808C225.257 422.336 224.777 421.152 223.817 420.224C222.857 419.328 221.577 418.848 220.041 418.848C218.473 418.848 217.225 419.328 216.265 420.224C215.305 421.152 214.825 422.304 214.825 423.68C214.825 424.832 215.049 425.76 215.561 426.496C216.041 427.264 216.937 427.904 218.249 428.448L220.169 429.28C220.745 429.536 221.161 429.856 221.417 430.176C221.673 430.496 221.833 430.88 221.833 431.328C221.833 431.936 221.673 432.384 221.385 432.704C221.097 433.024 220.681 433.152 220.137 433.152C219.561 433.152 219.113 432.992 218.793 432.64C218.473 432.288 218.313 431.776 218.313 431.136V430.944H214.729V431.136C214.729 432.736 215.209 434.016 216.169 434.912Z" fill="#2B00FF"/>
<path d="M226.641 419.104V436H230.353V419.104H226.641ZM226.641 413.92V417.024H230.353V413.92H226.641Z" fill="#2B00FF"/>
<path d="M233.574 440.16C234.47 440.992 235.686 441.376 237.254 441.376C238.886 441.376 240.166 440.896 241.094 439.872C242.022 438.88 242.502 437.536 242.502 435.808V419.104H238.822V420.448C238.502 419.936 238.118 419.552 237.638 419.264C237.126 419.008 236.582 418.848 235.974 418.848C234.726 418.848 233.734 419.296 232.998 420.16C232.262 421.056 231.91 422.432 231.91 424.32V429.216C231.91 431.136 232.262 432.512 233.03 433.376C233.798 434.272 234.79 434.688 236.038 434.688C237.158 434.688 238.118 434.208 238.95 433.248V436.16C238.95 436.832 238.79 437.344 238.502 437.664C238.214 438.016 237.798 438.176 237.286 438.176C236.742 438.176 236.326 438.048 236.07 437.76C235.782 437.504 235.654 437.088 235.654 436.576H232.198C232.23 438.176 232.678 439.36 233.574 440.16ZM238.886 428.608C238.886 430.464 238.342 431.36 237.254 431.36C236.678 431.36 236.262 431.168 236.006 430.72C235.75 430.304 235.622 429.6 235.622 428.608V424.928C235.622 423.968 235.75 423.296 236.006 422.848C236.262 422.4 236.678 422.176 237.222 422.176C237.766 422.176 238.182 422.4 238.47 422.848C238.726 423.296 238.886 423.968 238.886 424.928V428.608Z" fill="#2B00FF"/>
<path d="M244.031 413.92V436H247.743V423.968C247.743 423.392 247.871 422.976 248.159 422.656C248.415 422.336 248.799 422.176 249.279 422.176C249.727 422.176 250.079 422.336 250.367 422.656C250.655 422.976 250.815 423.392 250.815 423.968V436H254.527V423.936C254.527 422.304 254.175 421.056 253.535 420.16C252.863 419.296 251.807 418.848 250.399 418.848C249.407 418.848 248.511 419.296 247.743 420.192V413.92H244.031Z" fill="#2B00FF"/>
<path d="M260.64 421.696H263.328V419.104H260.64V414.624L256.928 416.128V419.104H255.04V421.696H256.928V430.752C256.928 432.576 257.408 433.92 258.4 434.752C259.392 435.584 260.864 436 262.784 436H262.912V432.672H262.784C261.344 432.672 260.64 431.968 260.64 430.528V421.696Z" fill="#2B00FF"/>
<circle cx="230" cy="65.9999" r="23" fill="#C4C2CC" stroke="white" stroke-width="6"/>
<mask id="mask0" mask-type="alpha" maskUnits="userSpaceOnUse" x="65" y="208" width="171" height="172">
<rect x="65" y="209" width="171" height="171" fill="#C4C4C4"/>
</mask>
<g mask="url(#mask0)">
<path fill-rule="evenodd" clip-rule="evenodd" d="M230 366C311.738 366 378 299.738 378 218C378 136.262 311.738 69.9999 230 69.9999C148.262 69.9999 82 136.262 82 218C82 299.738 148.262 366 230 366ZM230 378C318.366 378 390 306.365 390 218C390 129.634 318.366 57.9999 230 57.9999C141.634 57.9999 70 129.634 70 218C70 306.365 141.634 378 230 378Z" fill="#2B00FF"/>
<path fill-rule="evenodd" clip-rule="evenodd" d="M76 520C157.738 520 224 453.738 224 372C224 290.262 157.738 224 76 224C-5.73814 224 -72 290.262 -72 372C-72 453.738 -5.73814 520 76 520ZM76 532C164.366 532 236 460.365 236 372C236 283.634 164.366 212 76 212C-12.3656 212 -84 283.634 -84 372C-84 460.365 -12.3656 532 76 532Z" fill="#2B00FF"/>
</g>
<path d="M217.864 13.3039C217.512 12.4719 216.872 11.8639 215.912 11.4159C216.776 11.0319 217.384 10.4239 217.768 9.65592C218.12 8.88792 218.312 7.95992 218.312 6.87192C218.312 4.82392 217.832 3.31992 216.936 2.35992C216.008 1.39992 214.472 0.919922 212.328 0.919922H206.344V22.9999H212.328C214.504 22.9999 216.072 22.5199 217 21.4959C217.896 20.4719 218.376 18.8399 218.376 16.5999C218.376 15.2559 218.184 14.1359 217.864 13.3039ZM210.248 4.43992H211.912C212.808 4.43992 213.448 4.66392 213.832 5.04792C214.184 5.46392 214.376 6.16792 214.376 7.12792C214.376 8.08792 214.184 8.75992 213.832 9.17592C213.448 9.59192 212.808 9.78392 211.912 9.78392H210.248V4.43992ZM213.896 18.7759C213.512 19.2559 212.84 19.4799 211.88 19.4799H210.248V13.1759H211.88C212.776 13.1759 213.448 13.4319 213.832 13.9119C214.216 14.4239 214.44 15.2239 214.44 16.3119C214.44 17.4639 214.248 18.2959 213.896 18.7759Z" fill="#00F1BE"/>
<path d="M220.893 21.7839C221.629 22.7759 223.005 23.2559 225.053 23.2559C226.429 23.2559 227.486 23.0319 228.253 22.5839C229.021 22.1359 229.534 21.4639 229.854 20.6319C230.142 19.7999 230.302 18.6799 230.302 17.3359V6.10392H226.59V16.5679C226.59 17.5279 226.557 18.1999 226.493 18.6159C226.43 19.0639 226.301 19.3839 226.109 19.6079C225.885 19.8319 225.533 19.9279 225.053 19.9279C224.542 19.9279 224.189 19.7999 223.997 19.5439C223.773 19.2879 223.646 18.9679 223.581 18.5199C223.517 18.1039 223.517 17.4639 223.517 16.5679V6.10392H219.806V17.3359C219.806 19.3199 220.157 20.7919 220.893 21.7839Z" fill="#00F1BE"/>
<path d="M231.958 6.10392V22.9999H235.67V6.10392H231.958ZM231.958 0.919922V4.02392H235.67V0.919922H231.958Z" fill="#00F1BE"/>
<path d="M237.324 17.7519C237.324 21.2719 239.212 22.9999 243.052 22.9999H243.244V19.6719H243.084C241.708 19.6719 241.036 18.9679 241.036 17.5279V0.919922H237.324V17.7519Z" fill="#00F1BE"/>
<path d="M244.936 21.9439C245.704 22.8399 246.696 23.2559 247.944 23.2559C249.064 23.2559 250.024 22.7759 250.856 21.8159V22.9999H254.408V0.919922H250.728V7.44792C250.408 6.93592 250.024 6.55192 249.544 6.26392C249.032 6.00792 248.488 5.84792 247.88 5.84792C246.632 5.84792 245.64 6.29592 244.904 7.15992C244.168 8.05592 243.816 9.43192 243.816 11.3199V17.7839C243.816 19.7039 244.168 21.0799 244.936 21.9439ZM250.792 17.1759C250.792 19.0319 250.248 19.9279 249.16 19.9279C248.584 19.9279 248.168 19.7359 247.912 19.2879C247.656 18.8719 247.528 18.1679 247.528 17.1759V11.9279C247.528 10.9679 247.656 10.2959 247.912 9.84792C248.168 9.39992 248.584 9.17592 249.128 9.17592C249.672 9.17592 250.088 9.39992 250.376 9.84792C250.632 10.2959 250.792 10.9679 250.792 11.9279V17.1759Z" fill="#00F1BE"/>
<circle cx="230" cy="372" r="23" fill="#2B00FF" stroke="white" stroke-width="6"/>
<circle cx="383" cy="218" r="23" fill="#C4C2CC" stroke="white" stroke-width="6"/>
<circle cx="78" cy="218" r="23" fill="#2B00FF" stroke="white" stroke-width="6"/>
<path d="M225.234 71.5039V73.9999H234.834V71.2399H229.194L233.322 65.8879C233.802 65.2639 234.186 64.6399 234.45 64.0159C234.69 63.4159 234.834 62.7439 234.834 62.0239V61.6159C234.834 60.7999 234.618 60.0559 234.234 59.3839C233.85 58.7119 233.274 58.1839 232.554 57.7759C231.834 57.3919 230.994 57.1759 230.034 57.1759C229.026 57.1759 228.162 57.3679 227.442 57.7519C226.698 58.1359 226.122 58.6639 225.738 59.3359C225.354 60.0079 225.162 60.7759 225.162 61.6399V62.2159H228.21V61.8319C228.21 61.2079 228.354 60.7279 228.666 60.3679C228.954 60.0319 229.386 59.8399 229.914 59.8399C230.442 59.8399 230.85 60.0079 231.162 60.3439C231.474 60.6799 231.642 61.1359 231.642 61.7119V62.0479C231.642 62.7919 231.33 63.5599 230.73 64.3759L225.234 71.5039Z" fill="white"/>
<path d="M379.305 225.16C380.169 225.904 381.369 226.264 382.929 226.264C383.865 226.264 384.705 226.072 385.473 225.688C386.217 225.304 386.793 224.728 387.225 224.008C387.633 223.288 387.849 222.448 387.849 221.464V221.008C387.849 220.096 387.657 219.304 387.273 218.632C386.889 217.984 386.361 217.504 385.641 217.192C386.265 216.856 386.745 216.424 387.081 215.848C387.417 215.272 387.585 214.624 387.585 213.904V213.544C387.585 212.224 387.153 211.168 386.337 210.376C385.497 209.584 384.345 209.176 382.905 209.176C381.417 209.176 380.241 209.584 379.401 210.352C378.561 211.12 378.153 212.2 378.153 213.592V214H381.033V213.592C381.033 213.064 381.177 212.632 381.489 212.32C381.777 212.008 382.209 211.84 382.785 211.84C383.313 211.84 383.745 212.032 384.057 212.368C384.369 212.704 384.537 213.184 384.537 213.784V214.144C384.537 214.768 384.369 215.272 384.033 215.608C383.697 215.968 383.217 216.136 382.617 216.136H381.801V218.8H382.641C383.337 218.8 383.865 218.992 384.249 219.376C384.609 219.76 384.801 220.312 384.801 221.032V221.464C384.801 222.136 384.609 222.64 384.273 223.024C383.937 223.408 383.457 223.6 382.881 223.6C382.257 223.6 381.777 223.456 381.441 223.168C381.105 222.88 380.961 222.424 380.961 221.848V221.488H378.033V221.992C378.033 223.36 378.441 224.416 379.305 225.16Z" fill="white"/>
<path d="M235.406 377.36V374.6H234.062V370.712H230.918V374.6H227.726L232.454 363.44H229.31L224.582 374.6V377.36H230.918V380H234.062V377.36H235.406Z" fill="white"/>
<path d="M77.4774 212.92V226H80.6214V209.44H77.4774L74.6934 211.528V214.936L77.4774 212.92Z" fill="white"/>
</svg>
