<svg width="570" height="729" viewBox="0 0 570 729" fill="none" xmlns="http://www.w3.org/2000/svg"><g opacity=".4"><path d="M153.102 56.16h65.141c5.523 0 10 4.477 10 10v95.071M58 241v142.201c0 5.523 4.477 10 10 10h150.046M506 241v142.201c0 5.523-4.477 10-10 10H347.882m-63.632 27.842V499m217.041 0v-37.022c0-5.522-4.477-10-10-10H106.565c-5.523 0-10 4.478-10 10V499M224.39 213.309H68.857c-5.522 0-10 4.477-10 10v11.699M288 213h208c5.523 0 10 4.477 10 10v12M94 549v63m0 63v-63m0 0h197.008m0 0v63m0-63H480c5.523 0 10 4.477 10 10v53" stroke="#E8E8E8"/><path d="M58 415.199V458h-216v-44.674M-.19 387h-100.293" stroke="#DEDEDE" stroke-dasharray="2 2"/><circle cx="97.792" cy="55.178" r="54.678" fill="#fff" stroke="#E8E8E8"/><rect x="228.187" y="148.432" width="91.934" height="91.934" rx="9.5" transform="rotate(45 228.187 148.432)" fill="#fff" stroke="#E8E8E8"/><rect x="-4.5" y="233.686" width="125.475" height="54.798" rx="9.5" fill="#fff" stroke="#DCDCDC"/><rect x="-4.5" y="360.657" width="125.475" height="54.798" rx="9.5" fill="#fff" stroke="#DCDCDC"/><rect x="444.025" y="233.686" width="125.475" height="54.798" rx="9.5" fill="#fff" stroke="#DCDCDC"/><rect x="212.49" y="365.54" width="125.475" height="54.798" rx="9.5" fill="#fff" stroke="#DCDCDC"/><rect x="436.763" y="498.615" width="125.475" height="53.558" rx="9.5" fill="#fff" stroke="#DCDCDC" stroke-dasharray="2 2"/><rect x="216.478" y="499.836" width="125.475" height="53.558" rx="9.5" fill="#fff" stroke="#DCDCDC" stroke-dasharray="2 2"/><rect x="216.478" y="674.42" width="125.475" height="53.558" rx="9.5" fill="#fff" stroke="#DCDCDC"/><rect opacity=".5" x="453.5" y="674.5" width="76" height="53" rx="9.5" fill="#F8F3F3" stroke="#E03030"/><rect x="32.126" y="674.42" width="125.475" height="53.558" rx="9.5" fill="#fff" stroke="#DCDCDC"/><rect x="32.126" y="498.615" width="125.475" height="53.558" rx="9.5" fill="#fff" stroke="#E8E8E8"/><path d="M87.29 58.393h-1.32l3.685-8.496h1.08l3.648 8.496h-1.344l-.864-2.088h-4.032l-.852 2.088zm1.273-3.132h3.18l-1.584-3.984-1.596 3.984zm7.979 6.012h-1.128v-8.568h1.104v.888h.036c.184-.304.452-.552.804-.744.36-.2.776-.3 1.248-.3.424 0 .808.076 1.152.228.352.152.652.364.9.636.256.272.452.592.588.96.136.36.204.748.204 1.164 0 .416-.068.808-.204 1.176a2.9 2.9 0 01-.576.96 2.73 2.73 0 01-.9.648 2.968 2.968 0 01-1.188.228c-.408 0-.792-.088-1.152-.264a2.085 2.085 0 01-.852-.744h-.036v3.732zm3.744-5.736c0-.264-.04-.52-.12-.768a1.96 1.96 0 00-.36-.66 1.71 1.71 0 00-.6-.456 1.858 1.858 0 00-.816-.168 1.85 1.85 0 00-.792.168 1.868 1.868 0 00-.6.456c-.168.192-.3.412-.396.66a2.315 2.315 0 00-.132.78c0 .272.044.532.132.78.096.248.228.468.396.66.168.184.368.332.6.444.24.112.504.168.792.168.312 0 .584-.056.816-.168.24-.12.44-.276.6-.468.16-.192.28-.412.36-.66.08-.248.12-.504.12-.768zm3.861 5.736h-1.128v-8.568h1.104v.888h.036c.184-.304.452-.552.804-.744.36-.2.776-.3 1.248-.3.424 0 .808.076 1.152.228.352.152.652.364.9.636.256.272.452.592.588.96.136.36.204.748.204 1.164 0 .416-.068.808-.204 1.176a2.9 2.9 0 01-.576.96 2.731 2.731 0 01-.9.648 2.968 2.968 0 01-1.188.228c-.408 0-.792-.088-1.152-.264a2.085 2.085 0 01-.852-.744h-.036v3.732zm3.744-5.736c0-.264-.04-.52-.12-.768a1.96 1.96 0 00-.36-.66 1.71 1.71 0 00-.6-.456 1.858 1.858 0 00-.816-.168 1.85 1.85 0 00-.792.168 1.868 1.868 0 00-.6.456c-.168.192-.3.412-.396.66a2.315 2.315 0 00-.132.78c0 .272.044.532.132.78.096.248.228.468.396.66.168.184.368.332.6.444.24.112.504.168.792.168.312 0 .584-.056.816-.168.24-.12.44-.276.6-.468.16-.192.28-.412.36-.66.08-.248.12-.504.12-.768zM218.204 197.622h1.188v3.552h4.296v-3.552h1.2v8.496h-1.2v-3.888h-4.296v3.888h-1.188v-8.496zm12.222 4.812c0-.424-.128-.736-.384-.936-.256-.208-.596-.312-1.02-.312-.32 0-.624.064-.912.192a2.23 2.23 0 00-.708.468l-.6-.72a3.04 3.04 0 011.02-.624 3.716 3.716 0 011.308-.228c.408 0 .76.06 1.056.18.304.112.552.268.744.468.192.2.336.436.432.708.096.272.144.564.144.876v2.484c0 .192.004.396.012.612.016.208.04.38.072.516h-1.02a3.552 3.552 0 01-.096-.816h-.036a2.17 2.17 0 01-.792.708c-.312.168-.684.252-1.116.252-.224 0-.46-.032-.708-.096a1.952 1.952 0 01-.66-.288 1.722 1.722 0 01-.504-.54c-.128-.224-.192-.5-.192-.828 0-.432.116-.772.348-1.02.232-.256.536-.448.912-.576.376-.136.8-.224 1.272-.264.472-.04.948-.06 1.428-.06v-.156zm-.276.972c-.28 0-.572.012-.876.036a4.12 4.12 0 00-.816.144c-.24.072-.44.18-.6.324a.737.737 0 00-.24.576c0 .168.032.308.096.42a.908.908 0 00.276.276c.112.072.236.124.372.156.136.024.276.036.42.036.528 0 .932-.156 1.212-.468.288-.32.432-.72.432-1.2v-.3h-.276zm6.312-1.536a1.429 1.429 0 00-.54-.504 1.514 1.514 0 00-.78-.204c-.128 0-.256.016-.384.048a1.014 1.014 0 00-.348.132.725.725 0 00-.24.228.615.615 0 00-.084.336c0 .24.108.42.324.54.216.112.54.216.972.312.272.064.524.14.756.228.232.088.432.2.6.336.176.128.312.284.408.468.096.184.144.4.144.648 0 .336-.064.62-.192.852-.128.232-.3.424-.516.576a2.094 2.094 0 01-.72.312 3.655 3.655 0 01-.84.096 3.37 3.37 0 01-1.272-.252 2.485 2.485 0 01-1.02-.768l.804-.684c.152.224.36.412.624.564.272.152.568.228.888.228.144 0 .28-.012.408-.036.136-.032.256-.08.36-.144a.727.727 0 00.264-.252.745.745 0 00.096-.396c0-.264-.128-.46-.384-.588-.248-.128-.616-.248-1.104-.36a9.454 9.454 0 01-.588-.168 2.109 2.109 0 01-.528-.288 1.507 1.507 0 01-.396-.444 1.438 1.438 0 01-.144-.672c0-.304.06-.564.18-.78.128-.224.292-.404.492-.54.2-.144.428-.248.684-.312a2.974 2.974 0 011.968.132c.384.16.68.392.888.696l-.78.66zm-36.209 20.248h-1.32l3.684-8.496h1.08l3.648 8.496h-1.344l-.864-2.088h-4.032l-.852 2.088zm1.272-3.132h3.18l-1.584-3.984-1.596 3.984zm10.836-1.116c-.12-.184-.3-.336-.54-.456a1.608 1.608 0 00-.768-.192 1.8 1.8 0 00-.792.168 1.775 1.775 0 00-.576.456c-.16.184-.284.4-.372.648-.08.248-.12.508-.12.78s.04.532.12.78c.088.248.212.468.372.66.16.184.356.332.588.444a1.8 1.8 0 00.792.168c.288 0 .548-.056.78-.168.24-.112.436-.264.588-.456l.756.684c-.24.28-.54.5-.9.66a3.12 3.12 0 01-1.224.228c-.44 0-.848-.072-1.224-.216a2.956 2.956 0 01-.96-.6 2.936 2.936 0 01-.648-.948 3.21 3.21 0 01-.228-1.236c0-.448.076-.856.228-1.224a2.786 2.786 0 011.596-1.56 3.36 3.36 0 011.212-.216c.4 0 .796.08 1.188.24.4.16.716.392.948.696l-.816.66zm6.001-.516l-3.24 3.816h3.372v.948h-4.764v-.924l3.216-3.84h-3.06v-.924h4.476v.924zm5.471.516c-.12-.184-.3-.336-.54-.456a1.608 1.608 0 00-.768-.192 1.8 1.8 0 00-.792.168 1.775 1.775 0 00-.576.456c-.16.184-.284.4-.372.648-.08.248-.12.508-.12.78s.04.532.12.78c.088.248.212.468.372.66.16.184.356.332.588.444a1.8 1.8 0 00.792.168c.288 0 .548-.056.78-.168.24-.112.436-.264.588-.456l.756.684c-.24.28-.54.5-.9.66a3.12 3.12 0 01-1.224.228c-.44 0-.848-.072-1.224-.216a2.956 2.956 0 01-.96-.6 2.936 2.936 0 01-.648-.948 3.21 3.21 0 01-.228-1.236c0-.448.076-.856.228-1.224a2.786 2.786 0 011.596-1.56 3.36 3.36 0 011.212-.216c.4 0 .796.08 1.188.24.4.16.716.392.948.696l-.816.66zm7.706 1.392c0 .44-.08.844-.24 1.212a2.828 2.828 0 01-.648.96 2.984 2.984 0 01-.972.624 3.36 3.36 0 01-1.212.216 3.36 3.36 0 01-1.212-.216c-.376-.152-.7-.36-.972-.624a3.079 3.079 0 01-.648-.96 3.145 3.145 0 01-.228-1.212c0-.44.076-.84.228-1.2.16-.368.376-.684.648-.948a2.83 2.83 0 01.972-.612c.376-.152.78-.228 1.212-.228.432 0 .836.076 1.212.228a2.83 2.83 0 011.62 1.56c.16.36.24.76.24 1.2zm-1.176 0c0-.272-.044-.532-.132-.78a1.832 1.832 0 00-.96-1.104 1.828 1.828 0 00-.804-.168c-.304 0-.576.056-.816.168a1.74 1.74 0 00-.588.456c-.16.184-.284.4-.372.648-.08.248-.12.508-.12.78s.04.532.12.78c.088.248.212.468.372.66s.356.344.588.456c.24.112.512.168.816.168.304 0 .572-.056.804-.168.24-.112.44-.264.6-.456.16-.192.28-.412.36-.66.088-.248.132-.508.132-.78zm6.748 2.856a7.431 7.431 0 01-.036-.48 10.865 10.865 0 01-.012-.456h-.024c-.144.304-.388.564-.732.78a2.1 2.1 0 01-1.128.312c-.368 0-.688-.06-.96-.18a1.857 1.857 0 01-.66-.492 2.344 2.344 0 01-.384-.744c-.08-.28-.12-.58-.12-.9v-3.528h1.128v3.144c0 .232.016.456.048.672.04.208.108.392.204.552.096.16.228.288.396.384.168.096.384.144.648.144.456 0 .824-.168 1.104-.504.28-.344.42-.8.42-1.368v-3.024h1.128v4.464a18.354 18.354 0 00.048 1.224h-1.068zm3.997-5.688a10.052 10.052 0 01.048.936h.036c.072-.152.168-.292.288-.42.128-.136.272-.252.432-.348a1.98 1.98 0 01.528-.24c.192-.056.392-.084.6-.084.368 0 .684.064.948.192a1.857 1.857 0 011.044 1.224c.088.28.132.58.132.9v3.528h-1.128v-3.156c0-.232-.02-.452-.06-.66a1.507 1.507 0 00-.192-.552 1.074 1.074 0 00-.396-.384c-.168-.096-.384-.144-.648-.144-.448 0-.816.172-1.104.516-.28.336-.42.788-.42 1.356v3.024h-1.128v-4.464a18.354 18.354 0 00-.048-1.224h1.068zm8.748.924h-1.512v2.964c0 .344.064.592.192.744.128.144.332.216.612.216.104 0 .216-.012.336-.036.12-.024.228-.06.324-.108l.036.924a2.384 2.384 0 01-.456.108c-.16.032-.328.048-.504.048-.536 0-.948-.148-1.236-.444-.28-.296-.42-.74-.42-1.332v-3.084h-1.092v-.924h1.092v-1.632h1.116v1.632h1.512v.924zm3.805 2.352h-1.128v-.576c0-.208.02-.396.06-.564.04-.168.096-.32.168-.456.08-.136.172-.264.276-.384.112-.128.236-.256.372-.384l.444-.42c.176-.152.32-.316.432-.492.12-.184.18-.416.18-.696 0-.384-.124-.688-.372-.912-.24-.232-.552-.348-.936-.348-.4 0-.72.128-.96.384s-.38.568-.42.936l-1.152-.132c.048-.344.148-.652.3-.924.152-.28.34-.516.564-.708.232-.192.496-.336.792-.432a2.84 2.84 0 01.948-.156c.336 0 .648.048.936.144.296.096.556.24.78.432.224.184.4.416.528.696.128.272.192.588.192.948 0 .256-.028.48-.084.672a1.98 1.98 0 01-.24.528 2.245 2.245 0 01-.36.432c-.144.136-.3.276-.468.42-.16.136-.296.26-.408.372-.112.104-.2.212-.264.324a1.384 1.384 0 00-.144.372 2.966 2.966 0 00-.036.504v.42zm.3 1.692a.778.778 0 01-.228.552.76.76 0 01-.576.24.778.778 0 01-.804-.78c0-.216.076-.4.228-.552a.76.76 0 01.576-.24.78.78 0 01.804.78zM37.872 263.499h-1.188v-8.496h2.724c.408 0 .796.044 1.164.132.368.08.688.212.96.396.28.184.5.428.66.732.16.296.24.66.24 1.092 0 .624-.192 1.128-.576 1.512-.384.384-.88.628-1.488.732l2.376 3.9h-1.44l-2.16-3.78h-1.272v3.78zm0-4.776h1.368c.28 0 .54-.024.78-.072.24-.048.448-.124.624-.228.184-.112.328-.252.432-.42.104-.176.156-.392.156-.648s-.052-.468-.156-.636a1.174 1.174 0 00-.42-.42 1.667 1.667 0 00-.6-.216 3.606 3.606 0 00-.732-.072h-1.452v2.712zm10.146 1.428a1.966 1.966 0 00-.12-.624 1.33 1.33 0 00-.3-.516 1.283 1.283 0 00-.492-.336 1.63 1.63 0 00-.684-.132c-.24 0-.468.044-.684.132-.208.08-.392.192-.552.336a1.93 1.93 0 00-.384.516c-.096.192-.152.4-.168.624h3.384zm1.14.456v.192c0 .064-.004.128-.012.192h-4.512c.008.24.06.468.156.684.104.208.24.392.408.552.168.152.36.272.576.36.224.088.46.132.708.132.384 0 .716-.084.996-.252.28-.168.5-.372.66-.612l.792.636c-.304.4-.664.696-1.08.888a3.29 3.29 0 01-1.368.276c-.432 0-.832-.072-1.2-.216a2.82 2.82 0 01-.948-.6 2.876 2.876 0 01-.624-.948 3.177 3.177 0 01-.228-1.224c0-.44.072-.844.216-1.212.152-.376.36-.696.624-.96s.576-.468.936-.612c.36-.152.748-.228 1.164-.228.416 0 .792.068 1.128.204.344.136.632.332.864.588.24.256.424.568.552.936.128.36.192.768.192 1.224zm2.02 3.864c.247.28.555.504.923.672.376.168.76.252 1.152.252.376 0 .692-.056.948-.168.256-.104.46-.252.612-.444.16-.184.272-.404.336-.66.072-.256.108-.532.108-.828v-.732h-.024c-.208.32-.492.564-.852.732a2.69 2.69 0 01-1.152.252c-.432 0-.828-.076-1.188-.228a2.67 2.67 0 01-.9-.624 2.817 2.817 0 01-.576-.924 3.232 3.232 0 01-.204-1.152c0-.408.068-.792.204-1.152a2.79 2.79 0 01.576-.936c.248-.272.548-.484.9-.636a2.81 2.81 0 011.176-.24c.408 0 .796.088 1.164.264.376.176.672.444.888.804h.024v-.912h1.092v5.4c0 .416-.052.812-.156 1.188a2.54 2.54 0 01-.528 1.008 2.617 2.617 0 01-.972.708c-.4.176-.896.264-1.488.264-.496 0-.996-.092-1.5-.276a3.737 3.737 0 01-1.284-.756l.72-.876zm.347-3.876c0 .264.04.516.12.756.088.24.212.452.372.636.168.184.368.332.6.444a1.8 1.8 0 00.792.168c.288 0 .552-.052.792-.156.24-.104.444-.244.612-.42.168-.184.296-.396.384-.636.096-.248.144-.512.144-.792 0-.272-.048-.528-.144-.768a1.813 1.813 0 00-.396-.636 1.77 1.77 0 00-.612-.432 1.771 1.771 0 00-.78-.168 1.8 1.8 0 00-.792.168 1.8 1.8 0 00-.6.432c-.16.176-.284.388-.372.636-.08.24-.12.496-.12.768zm7.93 2.904h-1.128v-5.688h1.128v5.688zm.192-7.74c0 .208-.076.38-.228.516a.74.74 0 01-.528.204.74.74 0 01-.528-.204.704.704 0 01-.216-.516.68.68 0 01.216-.516.718.718 0 01.528-.216c.208 0 .384.072.528.216a.662.662 0 01.228.516zm4.846 3.492a1.429 1.429 0 00-.54-.504 1.514 1.514 0 00-.78-.204c-.128 0-.256.016-.384.048a1.014 1.014 0 00-.348.132.725.725 0 00-.24.228.615.615 0 00-.084.336c0 .24.108.42.324.54.216.112.54.216.972.312.272.064.524.14.756.228.232.088.432.2.6.336.176.128.312.284.408.468.096.184.144.4.144.648 0 .336-.064.62-.192.852-.128.232-.3.424-.516.576a2.094 2.094 0 01-.72.312 3.655 3.655 0 01-.84.096 3.37 3.37 0 01-1.272-.252 2.485 2.485 0 01-1.02-.768l.804-.684c.152.224.36.412.624.564.272.152.568.228.888.228.144 0 .28-.012.408-.036.136-.032.256-.08.36-.144a.727.727 0 00.264-.252.745.745 0 00.096-.396c0-.264-.128-.46-.384-.588-.248-.128-.616-.248-1.104-.36a9.454 9.454 0 01-.588-.168 2.109 2.109 0 01-.528-.288 1.507 1.507 0 01-.396-.444 1.438 1.438 0 01-.144-.672c0-.304.06-.564.18-.78.128-.224.292-.404.492-.54.2-.144.428-.248.684-.312a2.974 2.974 0 011.968.132c.384.16.68.392.888.696l-.78.66zm5.044-.516h-1.512v2.964c0 .344.064.592.192.744.128.144.332.216.612.216.104 0 .216-.012.336-.036.12-.024.228-.06.324-.108l.036.924a2.384 2.384 0 01-.456.108c-.16.032-.328.048-.504.048-.536 0-.948-.148-1.236-.444-.28-.296-.42-.74-.42-1.332v-3.084h-1.092v-.924h1.092v-1.632h1.116v1.632h1.512v.924zm5.329 1.416a1.966 1.966 0 00-.12-.624 1.33 1.33 0 00-.3-.516 1.283 1.283 0 00-.492-.336 1.63 1.63 0 00-.684-.132c-.24 0-.468.044-.684.132-.208.08-.392.192-.552.336a1.93 1.93 0 00-.384.516c-.096.192-.152.4-.168.624h3.384zm1.14.456v.192c0 .064-.004.128-.012.192h-4.512c.008.24.06.468.156.684.104.208.24.392.408.552.168.152.36.272.576.36.224.088.46.132.708.132.384 0 .716-.084.996-.252.28-.168.5-.372.66-.612l.792.636c-.304.4-.664.696-1.08.888a3.29 3.29 0 01-1.368.276c-.432 0-.832-.072-1.2-.216a2.82 2.82 0 01-.948-.6 2.876 2.876 0 01-.624-.948 3.177 3.177 0 01-.228-1.224c0-.44.072-.844.216-1.212.152-.376.36-.696.624-.96s.576-.468.936-.612c.36-.152.748-.228 1.164-.228.416 0 .792.068 1.128.204.344.136.632.332.864.588.24.256.424.568.552.936.128.36.192.768.192 1.224zm1.575-1.572a18.354 18.354 0 00-.048-1.224H78.6a10.865 10.865 0 01.048.96h.036c.16-.336.392-.604.696-.804a1.84 1.84 0 011.044-.312c.176 0 .324.016.444.048l-.048 1.044c-.16-.04-.332-.06-.516-.06-.272 0-.508.052-.708.156-.2.096-.368.228-.504.396a1.755 1.755 0 00-.288.588 2.396 2.396 0 00-.096.684v2.988H77.58v-4.464zM46.378 388.934h.036l2.556-6.96h1.284l-3.336 8.496h-1.104l-3.312-8.496h1.32l2.556 6.96zm8.48-1.812a1.966 1.966 0 00-.12-.624 1.33 1.33 0 00-.3-.516 1.283 1.283 0 00-.493-.336 1.63 1.63 0 00-.684-.132c-.24 0-.468.044-.684.132-.208.08-.392.192-.552.336a1.93 1.93 0 00-.384.516c-.096.192-.152.4-.168.624h3.384zm1.14.456v.192c0 .064-.005.128-.013.192h-4.512c.008.24.06.468.156.684.104.208.24.392.408.552.168.152.36.272.576.36.224.088.46.132.708.132.384 0 .716-.084.996-.252.28-.168.5-.372.66-.612l.792.636c-.304.4-.664.696-1.08.888a3.29 3.29 0 01-1.368.276c-.432 0-.832-.072-1.2-.216a2.82 2.82 0 01-.948-.6 2.876 2.876 0 01-.624-.948 3.177 3.177 0 01-.228-1.224c0-.44.072-.844.216-1.212.152-.376.36-.696.624-.96s.576-.468.936-.612c.36-.152.748-.228 1.164-.228.416 0 .792.068 1.128.204.344.136.632.332.864.588.24.256.424.568.552.936.128.36.192.768.192 1.224zm1.574-1.572a18.354 18.354 0 00-.048-1.224h1.068a10.865 10.865 0 01.048.96h.036c.16-.336.392-.604.696-.804a1.84 1.84 0 011.044-.312c.176 0 .324.016.444.048l-.048 1.044c-.16-.04-.332-.06-.516-.06-.272 0-.508.052-.708.156-.2.096-.368.228-.504.396a1.755 1.755 0 00-.288.588 2.396 2.396 0 00-.096.684v2.988h-1.128v-4.464zm5.488 4.464h-1.128v-5.688h1.128v5.688zm.192-7.74c0 .208-.076.38-.228.516a.74.74 0 01-.528.204.74.74 0 01-.528-.204.704.704 0 01-.216-.516.68.68 0 01.216-.516.718.718 0 01.528-.216c.208 0 .384.072.528.216a.662.662 0 01.228.516zm4.45 2.976h-1.32v4.764h-1.129v-4.764h-1.128v-.924h1.128v-1.188c0-.336.036-.644.108-.924.08-.288.204-.536.372-.744.176-.208.396-.372.66-.492.272-.12.6-.18.984-.18.272 0 .508.028.708.084l-.132.972a3.133 3.133 0 00-.264-.06 1.688 1.688 0 00-.3-.024c-.216 0-.392.04-.528.12a.772.772 0 00-.3.3c-.072.128-.12.276-.144.444-.024.16-.036.328-.036.504v1.188h1.32v.924zm3.198 3.54h.024l1.572-4.464h1.2l-2.76 7.032c-.096.24-.2.452-.312.636a1.815 1.815 0 01-.396.48c-.152.136-.332.24-.54.312-.2.072-.44.108-.72.108a3 3 0 01-.372-.024 2.114 2.114 0 01-.372-.06l.108-.996c.192.064.38.096.564.096.296 0 .516-.084.66-.252.144-.16.276-.392.396-.696l.36-.948-2.436-5.688h1.26l1.764 4.464zM79.12 527.108a3.872 3.872 0 01-1.308 1.116c-.535.28-1.18.42-1.931.42a4.897 4.897 0 01-1.8-.324 4.384 4.384 0 01-1.416-.924c-.393-.4-.7-.872-.925-1.416a4.775 4.775 0 01-.335-1.812c0-.664.111-1.268.335-1.812.233-.552.549-1.02.949-1.404a4.332 4.332 0 011.44-.912 4.897 4.897 0 011.8-.324c.287 0 .58.028.876.084.295.056.58.14.851.252.272.112.52.252.744.42.224.16.416.348.576.564l-.936.72c-.208-.288-.504-.524-.888-.708a2.652 2.652 0 00-1.224-.288c-.495 0-.944.092-1.343.276-.392.176-.728.42-1.008.732s-.496.676-.648 1.092a3.716 3.716 0 00-.228 1.308c0 .48.072.928.216 1.344.151.416.364.78.635 1.092.28.304.616.544 1.008.72.4.176.844.264 1.332.264.48 0 .916-.096 1.309-.288.392-.192.716-.472.972-.84l.948.648zm6.772-1.536c0 .44-.08.844-.24 1.212a2.828 2.828 0 01-.648.96 2.984 2.984 0 01-.972.624 3.36 3.36 0 01-1.212.216 3.36 3.36 0 01-1.212-.216c-.376-.152-.7-.36-.972-.624a3.079 3.079 0 01-.648-.96 3.145 3.145 0 01-.228-1.212c0-.44.076-.84.228-1.2.16-.368.376-.684.648-.948a2.83 2.83 0 01.972-.612c.376-.152.78-.228 1.212-.228.432 0 .836.076 1.212.228a2.83 2.83 0 011.62 1.56c.16.36.24.76.24 1.2zm-1.176 0c0-.272-.044-.532-.132-.78a1.832 1.832 0 00-.96-1.104 1.828 1.828 0 00-.804-.168c-.304 0-.576.056-.816.168a1.74 1.74 0 00-.588.456c-.16.184-.284.4-.372.648-.08.248-.12.508-.12.78s.04.532.12.78c.088.248.212.468.372.66s.356.344.588.456c.24.112.512.168.816.168.304 0 .572-.056.804-.168.24-.112.44-.264.6-.456.16-.192.28-.412.36-.66.088-.248.132-.508.132-.78zm3.76-2.832a10.052 10.052 0 01.048.936h.036c.072-.152.168-.292.288-.42.128-.136.272-.252.432-.348a1.98 1.98 0 01.528-.24c.192-.056.392-.084.6-.084.368 0 .684.064.948.192A1.857 1.857 0 0192.4 524c.088.28.132.58.132.9v3.528h-1.128v-3.156c0-.232-.02-.452-.06-.66a1.507 1.507 0 00-.192-.552 1.074 1.074 0 00-.396-.384c-.168-.096-.384-.144-.648-.144-.448 0-.816.172-1.104.516-.28.336-.42.788-.42 1.356v3.024h-1.128v-4.464a18.354 18.354 0 00-.048-1.224h1.068zm8.749.924h-1.512v2.964c0 .344.064.592.192.744.127.144.332.216.611.216.105 0 .216-.012.337-.036.12-.024.228-.06.324-.108l.035.924a2.384 2.384 0 01-.456.108c-.16.032-.328.048-.504.048-.535 0-.947-.148-1.236-.444-.28-.296-.42-.74-.42-1.332v-3.084h-1.092v-.924h1.093v-1.632h1.116v1.632h1.512v.924zm4.705 1.08c0-.424-.128-.736-.384-.936-.256-.208-.596-.312-1.02-.312-.32 0-.624.064-.912.192a2.23 2.23 0 00-.708.468l-.6-.72a3.04 3.04 0 011.02-.624 3.718 3.718 0 011.308-.228c.408 0 .76.06 1.056.18.304.112.552.268.744.468.192.2.336.436.432.708.096.272.144.564.144.876v2.484c0 .192.004.396.012.612.016.208.04.38.072.516h-1.02a3.552 3.552 0 01-.096-.816h-.036a2.17 2.17 0 01-.792.708c-.312.168-.684.252-1.116.252-.224 0-.46-.032-.708-.096a1.952 1.952 0 01-.66-.288 1.722 1.722 0 01-.504-.54c-.128-.224-.192-.5-.192-.828 0-.432.116-.772.348-1.02.232-.256.536-.448.912-.576a4.97 4.97 0 011.272-.264c.472-.04.948-.06 1.428-.06v-.156zm-.276.972c-.28 0-.572.012-.876.036a4.128 4.128 0 00-.816.144c-.24.072-.44.18-.6.324a.737.737 0 00-.24.576c0 .168.032.308.096.42a.908.908 0 00.276.276c.112.072.236.124.372.156.136.024.276.036.42.036.528 0 .932-.156 1.212-.468.288-.32.432-.72.432-1.2v-.3h-.276zm7.224-1.536c-.12-.184-.3-.336-.54-.456a1.608 1.608 0 00-.768-.192 1.8 1.8 0 00-.792.168 1.775 1.775 0 00-.576.456c-.16.184-.284.4-.372.648-.08.248-.12.508-.12.78s.04.532.12.78c.088.248.212.468.372.66.16.184.356.332.588.444a1.8 1.8 0 00.792.168c.288 0 .548-.056.78-.168.24-.112.436-.264.588-.456l.756.684c-.24.28-.54.5-.9.66a3.12 3.12 0 01-1.224.228c-.44 0-.848-.072-1.224-.216a2.956 2.956 0 01-.96-.6 2.936 2.936 0 01-.648-.948 3.21 3.21 0 01-.228-1.236c0-.448.076-.856.228-1.224a2.786 2.786 0 011.596-1.56 3.36 3.36 0 011.212-.216c.4 0 .796.08 1.188.24.4.16.716.392.948.696l-.816.66zm4.729-.516h-1.512v2.964c0 .344.064.592.192.744.128.144.332.216.612.216.104 0 .216-.012.336-.036.12-.024.228-.06.324-.108l.036.924a2.384 2.384 0 01-.456.108c-.16.032-.328.048-.504.048-.536 0-.948-.148-1.236-.444-.28-.296-.42-.74-.42-1.332v-3.084h-1.092v-.924h1.092v-1.632h1.116v1.632h1.512v.924zm4.238.516a1.429 1.429 0 00-.54-.504 1.514 1.514 0 00-.78-.204c-.128 0-.256.016-.384.048a1.014 1.014 0 00-.348.132.725.725 0 00-.24.228.615.615 0 00-.084.336c0 .24.108.42.324.54.216.112.54.216.972.312.272.064.524.14.756.228.232.088.432.2.6.336.176.128.312.284.408.468.096.184.144.4.144.648 0 .336-.064.62-.192.852-.128.232-.3.424-.516.576a2.094 2.094 0 01-.72.312 3.655 3.655 0 01-.84.096 3.37 3.37 0 01-1.272-.252 2.485 2.485 0 01-1.02-.768l.804-.684c.152.224.36.412.624.564.272.152.568.228.888.228.144 0 .28-.012.408-.036.136-.032.256-.08.36-.144a.727.727 0 00.264-.252.745.745 0 00.096-.396c0-.264-.128-.46-.384-.588-.248-.128-.616-.248-1.104-.36a9.454 9.454 0 01-.588-.168 2.109 2.109 0 01-.528-.288 1.507 1.507 0 01-.396-.444 1.438 1.438 0 01-.144-.672c0-.304.06-.564.18-.78.128-.224.292-.404.492-.54.2-.144.428-.248.684-.312a2.974 2.974 0 011.968.132c.384.16.68.392.888.696l-.78.66zM256.404 528.329a3.872 3.872 0 01-1.308 1.116c-.536.28-1.18.42-1.932.42a4.897 4.897 0 01-1.8-.324 4.384 4.384 0 01-1.416-.924c-.392-.4-.7-.872-.924-1.416a4.775 4.775 0 01-.336-1.812c0-.664.112-1.268.336-1.812.232-.552.548-1.02.948-1.404a4.332 4.332 0 011.44-.912 4.897 4.897 0 011.8-.324c.288 0 .58.028.876.084.296.056.58.14.852.252.272.112.52.252.744.42.224.16.416.348.576.564l-.936.72c-.208-.288-.504-.524-.888-.708a2.652 2.652 0 00-1.224-.288c-.496 0-.944.092-1.344.276-.392.176-.728.42-1.008.732s-.496.676-.648 1.092a3.716 3.716 0 00-.228 1.308c0 .48.072.928.216 1.344.152.416.364.78.636 1.092.28.304.616.544 1.008.72.4.176.844.264 1.332.264.48 0 .916-.096 1.308-.288.392-.192.716-.472.972-.84l.948.648zm6.771-1.536c0 .44-.08.844-.24 1.212a2.828 2.828 0 01-.648.96 2.984 2.984 0 01-.972.624 3.36 3.36 0 01-1.212.216 3.36 3.36 0 01-1.212-.216c-.376-.152-.7-.36-.972-.624a3.079 3.079 0 01-.648-.96 3.145 3.145 0 01-.228-1.212c0-.44.076-.84.228-1.2.16-.368.376-.684.648-.948a2.83 2.83 0 01.972-.612c.376-.152.78-.228 1.212-.228.432 0 .836.076 1.212.228a2.83 2.83 0 011.62 1.56c.16.36.24.76.24 1.2zm-1.176 0c0-.272-.044-.532-.132-.78a1.832 1.832 0 00-.96-1.104 1.828 1.828 0 00-.804-.168c-.304 0-.576.056-.816.168a1.74 1.74 0 00-.588.456c-.16.184-.284.4-.372.648-.08.248-.12.508-.12.78s.04.532.12.78c.088.248.212.468.372.66s.356.344.588.456c.24.112.512.168.816.168.304 0 .572-.056.804-.168.24-.112.44-.264.6-.456.16-.192.28-.412.36-.66.088-.248.132-.508.132-.78zm3.844-1.896c.144-.304.372-.56.684-.768.32-.216.696-.324 1.128-.324.384 0 .728.088 1.032.264.312.176.556.468.732.876a1.99 1.99 0 01.804-.84c.344-.2.72-.3 1.128-.3.368 0 .684.064.948.192a1.857 1.857 0 011.044 1.224c.088.28.132.58.132.9v3.528h-1.128v-3.156c0-.232-.02-.452-.06-.66a1.68 1.68 0 00-.204-.552 1.103 1.103 0 00-.384-.384c-.16-.096-.364-.144-.612-.144-.256 0-.476.056-.66.168a1.348 1.348 0 00-.456.42 1.88 1.88 0 00-.252.576 3.033 3.033 0 00-.072.66v3.072h-1.128v-3.384c0-.224-.02-.428-.06-.612a1.19 1.19 0 00-.204-.468.94.94 0 00-.372-.312 1.2 1.2 0 00-.564-.12c-.416 0-.764.172-1.044.516-.272.336-.408.788-.408 1.356v3.024h-1.128v-4.464a18.354 18.354 0 00-.048-1.224h1.068a10.052 10.052 0 01.048.936h.036zm10.665 7.632h-1.128v-8.568h1.104v.888h.036c.184-.304.452-.552.804-.744.36-.2.776-.3 1.248-.3.424 0 .808.076 1.152.228.352.152.652.364.9.636.256.272.452.592.588.96.136.36.204.748.204 1.164 0 .416-.068.808-.204 1.176a2.9 2.9 0 01-.576.96 2.731 2.731 0 01-.9.648 2.968 2.968 0 01-1.188.228c-.408 0-.792-.088-1.152-.264a2.085 2.085 0 01-.852-.744h-.036v3.732zm3.744-5.736c0-.264-.04-.52-.12-.768a1.96 1.96 0 00-.36-.66 1.71 1.71 0 00-.6-.456 1.858 1.858 0 00-.816-.168 1.85 1.85 0 00-.792.168 1.868 1.868 0 00-.6.456c-.168.192-.3.412-.396.66a2.315 2.315 0 00-.132.78c0 .272.044.532.132.78.096.248.228.468.396.66.168.184.368.332.6.444.24.112.504.168.792.168.312 0 .584-.056.816-.168.24-.12.44-.276.6-.468.16-.192.28-.412.36-.66.08-.248.12-.504.12-.768zm6.273-.828c0-.424-.128-.736-.384-.936-.256-.208-.596-.312-1.02-.312-.32 0-.624.064-.912.192a2.23 2.23 0 00-.708.468l-.6-.72a3.04 3.04 0 011.02-.624 3.716 3.716 0 011.308-.228c.408 0 .76.06 1.056.18.304.112.552.268.744.468.192.2.336.436.432.708.096.272.144.564.144.876v2.484c0 .192.004.396.012.612.016.208.04.38.072.516h-1.02a3.552 3.552 0 01-.096-.816h-.036a2.17 2.17 0 01-.792.708c-.312.168-.684.252-1.116.252-.224 0-.46-.032-.708-.096a1.952 1.952 0 01-.66-.288 1.722 1.722 0 01-.504-.54c-.128-.224-.192-.5-.192-.828 0-.432.116-.772.348-1.02.232-.256.536-.448.912-.576.376-.136.8-.224 1.272-.264.472-.04.948-.06 1.428-.06v-.156zm-.276.972c-.28 0-.572.012-.876.036a4.12 4.12 0 00-.816.144c-.24.072-.44.18-.6.324a.737.737 0 00-.24.576c0 .168.032.308.096.42a.908.908 0 00.276.276c.112.072.236.124.372.156.136.024.276.036.42.036.528 0 .932-.156 1.212-.468.288-.32.432-.72.432-1.2v-.3h-.276zm4.26-2.976a10.052 10.052 0 01.048.936h.036c.072-.152.168-.292.288-.42.128-.136.272-.252.432-.348a1.98 1.98 0 01.528-.24c.192-.056.392-.084.6-.084.368 0 .684.064.948.192a1.857 1.857 0 011.044 1.224c.088.28.132.58.132.9v3.528h-1.128v-3.156c0-.232-.02-.452-.06-.66a1.507 1.507 0 00-.192-.552 1.074 1.074 0 00-.396-.384c-.168-.096-.384-.144-.648-.144-.448 0-.816.172-1.104.516-.28.336-.42.788-.42 1.356v3.024h-1.128v-4.464a18.354 18.354 0 00-.048-1.224h1.068zm7.105 5.688h-1.128v-5.688h1.128v5.688zm.192-7.74c0 .208-.076.38-.228.516a.74.74 0 01-.528.204.74.74 0 01-.528-.204.704.704 0 01-.216-.516.68.68 0 01.216-.516.718.718 0 01.528-.216c.208 0 .384.072.528.216a.662.662 0 01.228.516zm5.937 4.392a1.966 1.966 0 00-.12-.624 1.33 1.33 0 00-.3-.516 1.283 1.283 0 00-.492-.336 1.63 1.63 0 00-.684-.132c-.24 0-.468.044-.684.132-.208.08-.392.192-.552.336a1.93 1.93 0 00-.384.516c-.096.192-.152.4-.168.624h3.384zm1.14.456v.192c0 .064-.004.128-.012.192h-4.512c.008.24.06.468.156.684.104.208.24.392.408.552.168.152.36.272.576.36.224.088.46.132.708.132.384 0 .716-.084.996-.252.28-.168.5-.372.66-.612l.792.636c-.304.4-.664.696-1.08.888a3.29 3.29 0 01-1.368.276c-.432 0-.832-.072-1.2-.216a2.82 2.82 0 01-.948-.6 2.876 2.876 0 01-.624-.948 3.177 3.177 0 01-.228-1.224c0-.44.072-.844.216-1.212.152-.376.36-.696.624-.96s.576-.468.936-.612c.36-.152.748-.228 1.164-.228.416 0 .792.068 1.128.204.344.136.632.332.864.588.24.256.424.568.552.936.128.36.192.768.192 1.224zm4.647-1.356a1.429 1.429 0 00-.54-.504 1.514 1.514 0 00-.78-.204c-.128 0-.256.016-.384.048a1.014 1.014 0 00-.348.132.725.725 0 00-.24.228.615.615 0 00-.084.336c0 .24.108.42.324.54.216.112.54.216.972.312.272.064.524.14.756.228.232.088.432.2.6.336.176.128.312.284.408.468.096.184.144.4.144.648 0 .336-.064.62-.192.852-.128.232-.3.424-.516.576a2.094 2.094 0 01-.72.312 3.655 3.655 0 01-.84.096 3.37 3.37 0 01-1.272-.252 2.485 2.485 0 01-1.02-.768l.804-.684c.152.224.36.412.624.564.272.152.568.228.888.228.144 0 .28-.012.408-.036.136-.032.256-.08.36-.144a.727.727 0 00.264-.252.745.745 0 00.096-.396c0-.264-.128-.46-.384-.588-.248-.128-.616-.248-1.104-.36a9.454 9.454 0 01-.588-.168 2.109 2.109 0 01-.528-.288 1.507 1.507 0 01-.396-.444 1.438 1.438 0 01-.144-.672c0-.304.06-.564.18-.78.128-.224.292-.404.492-.54.2-.144.428-.248.684-.312a2.974 2.974 0 011.968.132c.384.16.68.392.888.696l-.78.66zM264.143 695.737h2.916c.544 0 1.088.08 1.632.24a4.38 4.38 0 011.476.756c.44.344.796.784 1.068 1.32s.408 1.18.408 1.932c0 .728-.136 1.36-.408 1.896a4.027 4.027 0 01-1.068 1.32 4.75 4.75 0 01-1.476.78 5.505 5.505 0 01-1.632.252h-2.916v-8.496zm1.188 7.452h1.488c.512 0 .984-.072 1.416-.216.44-.144.816-.352 1.128-.624.32-.272.568-.608.744-1.008.176-.4.264-.852.264-1.356 0-.528-.088-.992-.264-1.392a2.655 2.655 0 00-.744-.996 3.072 3.072 0 00-1.128-.612 4.454 4.454 0 00-1.416-.216h-1.488v6.42zm12.045-2.304a1.966 1.966 0 00-.12-.624 1.33 1.33 0 00-.3-.516 1.283 1.283 0 00-.492-.336 1.63 1.63 0 00-.684-.132c-.24 0-.468.044-.684.132-.208.08-.392.192-.552.336a1.93 1.93 0 00-.384.516c-.096.192-.152.4-.168.624h3.384zm1.14.456v.192c0 .064-.004.128-.012.192h-4.512c.008.24.06.468.156.684.104.208.24.392.408.552.168.152.36.272.576.36.224.088.46.132.708.132.384 0 .716-.084.996-.252.28-.168.5-.372.66-.612l.792.636c-.304.4-.664.696-1.08.888a3.29 3.29 0 01-1.368.276c-.432 0-.832-.072-1.2-.216a2.82 2.82 0 01-.948-.6 2.876 2.876 0 01-.624-.948 3.177 3.177 0 01-.228-1.224c0-.44.072-.844.216-1.212.152-.376.36-.696.624-.96s.576-.468.936-.612c.36-.152.748-.228 1.164-.228.416 0 .792.068 1.128.204.344.136.632.332.864.588.24.256.424.568.552.936.128.36.192.768.192 1.224zm4.359-1.872h-1.512v2.964c0 .344.064.592.192.744.128.144.332.216.612.216.104 0 .216-.012.336-.036.12-.024.228-.06.324-.108l.036.924a2.384 2.384 0 01-.456.108c-.16.032-.328.048-.504.048-.536 0-.948-.148-1.236-.444-.28-.296-.42-.74-.42-1.332v-3.084h-1.092v-.924h1.092v-1.632h1.116v1.632h1.512v.924zm4.705 1.08c0-.424-.128-.736-.384-.936-.256-.208-.596-.312-1.02-.312-.32 0-.624.064-.912.192a2.23 2.23 0 00-.708.468l-.6-.72a3.04 3.04 0 011.02-.624 3.716 3.716 0 011.308-.228c.408 0 .76.06 1.056.18.304.112.552.268.744.468.192.2.336.436.432.708.096.272.144.564.144.876v2.484c0 .192.004.396.012.612.016.208.04.38.072.516h-1.02a3.552 3.552 0 01-.096-.816h-.036a2.17 2.17 0 01-.792.708c-.312.168-.684.252-1.116.252-.224 0-.46-.032-.708-.096a1.952 1.952 0 01-.66-.288 1.722 1.722 0 01-.504-.54c-.128-.224-.192-.5-.192-.828 0-.432.116-.772.348-1.02.232-.256.536-.448.912-.576.376-.136.8-.224 1.272-.264.472-.04.948-.06 1.428-.06v-.156zm-.276.972c-.28 0-.572.012-.876.036a4.12 4.12 0 00-.816.144c-.24.072-.44.18-.6.324a.737.737 0 00-.24.576c0 .168.032.308.096.42a.908.908 0 00.276.276c.112.072.236.124.372.156.136.024.276.036.42.036.528 0 .932-.156 1.212-.468.288-.32.432-.72.432-1.2v-.3h-.276zm4.38 2.712h-1.128v-5.688h1.128v5.688zm.192-7.74c0 .208-.076.38-.228.516a.74.74 0 01-.528.204.74.74 0 01-.528-.204.704.704 0 01-.216-.516.68.68 0 01.216-.516.718.718 0 01.528-.216c.208 0 .384.072.528.216a.662.662 0 01.228.516zm2.925 7.74h-1.128v-9.072h1.128v9.072z" fill="#979797"/><path opacity=".5" d="M476.095 695.737h2.916c.544 0 1.088.08 1.632.24a4.38 4.38 0 011.476.756c.44.344.796.784 1.068 1.32s.408 1.18.408 1.932c0 .728-.136 1.36-.408 1.896a4.027 4.027 0 01-1.068 1.32 4.75 4.75 0 01-1.476.78 5.505 5.505 0 01-1.632.252h-2.916v-8.496zm1.188 7.452h1.488c.512 0 .984-.072 1.416-.216.44-.144.816-.352 1.128-.624.32-.272.568-.608.744-1.008.176-.4.264-.852.264-1.356 0-.528-.088-.992-.264-1.392a2.655 2.655 0 00-.744-.996 3.072 3.072 0 00-1.128-.612 4.454 4.454 0 00-1.416-.216h-1.488v6.42zm12.045-2.304a1.966 1.966 0 00-.12-.624 1.33 1.33 0 00-.3-.516 1.283 1.283 0 00-.492-.336 1.63 1.63 0 00-.684-.132c-.24 0-.468.044-.684.132-.208.08-.392.192-.552.336a1.93 1.93 0 00-.384.516c-.096.192-.152.4-.168.624h3.384zm1.14.456v.192c0 .064-.004.128-.012.192h-4.512c.008.24.06.468.156.684.104.208.24.392.408.552.168.152.36.272.576.36.224.088.46.132.708.132.384 0 .716-.084.996-.252.28-.168.5-.372.66-.612l.792.636c-.304.4-.664.696-1.08.888a3.29 3.29 0 01-1.368.276c-.432 0-.832-.072-1.2-.216a2.82 2.82 0 01-.948-.6 2.876 2.876 0 01-.624-.948 3.177 3.177 0 01-.228-1.224c0-.44.072-.844.216-1.212.152-.376.36-.696.624-.96s.576-.468.936-.612c.36-.152.748-.228 1.164-.228.416 0 .792.068 1.128.204.344.136.632.332.864.588.24.256.424.568.552.936.128.36.192.768.192 1.224zm2.727 2.892h-1.128v-9.072h1.128v9.072zm6.129-3.348a1.966 1.966 0 00-.12-.624 1.33 1.33 0 00-.3-.516 1.283 1.283 0 00-.492-.336 1.63 1.63 0 00-.684-.132c-.24 0-.468.044-.684.132-.208.08-.392.192-.552.336a1.93 1.93 0 00-.384.516c-.096.192-.152.4-.168.624h3.384zm1.14.456v.192c0 .064-.004.128-.012.192h-4.512c.008.24.06.468.156.684.104.208.24.392.408.552.168.152.36.272.576.36.224.088.46.132.708.132.384 0 .716-.084.996-.252.28-.168.5-.372.66-.612l.792.636c-.304.4-.664.696-1.08.888a3.29 3.29 0 01-1.368.276c-.432 0-.832-.072-1.2-.216a2.82 2.82 0 01-.948-.6 2.876 2.876 0 01-.624-.948 3.177 3.177 0 01-.228-1.224c0-.44.072-.844.216-1.212.152-.376.36-.696.624-.96s.576-.468.936-.612c.36-.152.748-.228 1.164-.228.416 0 .792.068 1.128.204.344.136.632.332.864.588.24.256.424.568.552.936.128.36.192.768.192 1.224zm4.359-1.872h-1.512v2.964c0 .344.064.592.192.744.128.144.332.216.612.216.104 0 .216-.012.336-.036.12-.024.228-.06.324-.108l.036.924a2.384 2.384 0 01-.456.108c-.16.032-.328.048-.504.048-.536 0-.948-.148-1.236-.444-.28-.296-.42-.74-.42-1.332v-3.084h-1.092v-.924h1.092v-1.632h1.116v1.632h1.512v.924zm5.329 1.416a1.966 1.966 0 00-.12-.624 1.33 1.33 0 00-.3-.516 1.283 1.283 0 00-.492-.336 1.63 1.63 0 00-.684-.132c-.24 0-.468.044-.684.132-.208.08-.392.192-.552.336a1.93 1.93 0 00-.384.516c-.096.192-.152.4-.168.624h3.384zm1.14.456v.192c0 .064-.004.128-.012.192h-4.512c.008.24.06.468.156.684.104.208.24.392.408.552.168.152.36.272.576.36.224.088.46.132.708.132.384 0 .716-.084.996-.252.28-.168.5-.372.66-.612l.792.636c-.304.4-.664.696-1.08.888a3.29 3.29 0 01-1.368.276c-.432 0-.832-.072-1.2-.216a2.82 2.82 0 01-.948-.6 2.876 2.876 0 01-.624-.948 3.177 3.177 0 01-.228-1.224c0-.44.072-.844.216-1.212.152-.376.36-.696.624-.96s.576-.468.936-.612c.36-.152.748-.228 1.164-.228.416 0 .792.068 1.128.204.344.136.632.332.864.588.24.256.424.568.552.936.128.36.192.768.192 1.224z" fill="#E03030"/><path d="M87.463 703.177h3.792v1.056h-4.98v-8.496h1.188v7.44zm6.02 1.056h-1.127v-5.688h1.128v5.688zm.193-7.74c0 .208-.076.38-.228.516a.74.74 0 01-.528.204.74.74 0 01-.528-.204.704.704 0 01-.216-.516.68.68 0 01.216-.516.718.718 0 01.528-.216c.208 0 .384.072.528.216a.662.662 0 01.228.516zm4.845 3.492a1.429 1.429 0 00-.54-.504 1.514 1.514 0 00-.78-.204c-.128 0-.256.016-.384.048a1.014 1.014 0 00-.348.132.725.725 0 00-.24.228.615.615 0 00-.084.336c0 .24.108.42.324.54.216.112.54.216.972.312.272.064.524.14.756.228.232.088.432.2.6.336.176.128.312.284.408.468.096.184.144.4.144.648 0 .336-.064.62-.192.852-.128.232-.3.424-.516.576a2.094 2.094 0 01-.72.312 3.655 3.655 0 01-.84.096 3.37 3.37 0 01-1.272-.252 2.485 2.485 0 01-1.02-.768l.804-.684c.152.224.36.412.624.564.272.152.568.228.888.228.144 0 .28-.012.408-.036.136-.032.256-.08.36-.144a.727.727 0 00.264-.252.745.745 0 00.096-.396c0-.264-.128-.46-.384-.588-.248-.128-.616-.248-1.104-.36a9.454 9.454 0 01-.588-.168 2.109 2.109 0 01-.528-.288 1.507 1.507 0 01-.396-.444 1.438 1.438 0 01-.144-.672c0-.304.06-.564.18-.78.128-.224.292-.404.492-.54.2-.144.428-.248.684-.312a2.974 2.974 0 011.968.132c.384.16.68.392.888.696l-.78.66zm5.044-.516h-1.512v2.964c0 .344.064.592.192.744.128.144.332.216.612.216.104 0 .216-.012.336-.036.12-.024.228-.06.324-.108l.036.924a2.384 2.384 0 01-.456.108c-.16.032-.328.048-.504.048-.536 0-.948-.148-1.236-.444-.28-.296-.42-.74-.42-1.332v-3.084h-1.092v-.924h1.092v-1.632h1.116v1.632h1.512v.924zM485.706 519.932h2.916c.544 0 1.088.08 1.632.24a4.38 4.38 0 011.476.756c.44.344.796.784 1.068 1.32s.408 1.18.408 1.932c0 .728-.136 1.36-.408 1.896a4.027 4.027 0 01-1.068 1.32 4.75 4.75 0 01-1.476.78 5.505 5.505 0 01-1.632.252h-2.916v-8.496zm1.188 7.452h1.488c.512 0 .984-.072 1.416-.216.44-.144.816-.352 1.128-.624.32-.272.568-.608.744-1.008.176-.4.264-.852.264-1.356 0-.528-.088-.992-.264-1.392a2.655 2.655 0 00-.744-.996 3.072 3.072 0 00-1.128-.612 4.454 4.454 0 00-1.416-.216h-1.488v6.42zm12.045-2.304a1.966 1.966 0 00-.12-.624 1.33 1.33 0 00-.3-.516 1.283 1.283 0 00-.492-.336 1.63 1.63 0 00-.684-.132c-.24 0-.468.044-.684.132-.208.08-.392.192-.552.336a1.93 1.93 0 00-.384.516c-.096.192-.152.4-.168.624h3.384zm1.14.456v.192c0 .064-.004.128-.012.192h-4.512c.008.24.06.468.156.684.104.208.24.392.408.552.168.152.36.272.576.36.224.088.46.132.708.132.384 0 .716-.084.996-.252.28-.168.5-.372.66-.612l.792.636c-.304.4-.664.696-1.08.888a3.29 3.29 0 01-1.368.276c-.432 0-.832-.072-1.2-.216a2.82 2.82 0 01-.948-.6 2.876 2.876 0 01-.624-.948 3.177 3.177 0 01-.228-1.224c0-.44.072-.844.216-1.212.152-.376.36-.696.624-.96s.576-.468.936-.612c.36-.152.748-.228 1.164-.228.416 0 .792.068 1.128.204.344.136.632.332.864.588.24.256.424.568.552.936.128.36.192.768.192 1.224zm5.045-.792c0-.424-.128-.736-.384-.936-.256-.208-.596-.312-1.02-.312-.32 0-.624.064-.912.192a2.23 2.23 0 00-.708.468l-.6-.72a3.04 3.04 0 011.02-.624 3.716 3.716 0 011.308-.228c.408 0 .76.06 1.056.18.304.112.552.268.744.468.192.2.336.436.432.708.096.272.144.564.144.876v2.484c0 .192.004.396.012.612.016.208.04.38.072.516h-1.02a3.552 3.552 0 01-.096-.816h-.036a2.17 2.17 0 01-.792.708c-.312.168-.684.252-1.116.252-.224 0-.46-.032-.708-.096a1.952 1.952 0 01-.66-.288 1.722 1.722 0 01-.504-.54c-.128-.224-.192-.5-.192-.828 0-.432.116-.772.348-1.02.232-.256.536-.448.912-.576.376-.136.8-.224 1.272-.264.472-.04.948-.06 1.428-.06v-.156zm-.276.972c-.28 0-.572.012-.876.036a4.12 4.12 0 00-.816.144c-.24.072-.44.18-.6.324a.737.737 0 00-.24.576c0 .168.032.308.096.42a.908.908 0 00.276.276c.112.072.236.124.372.156.136.024.276.036.42.036.528 0 .932-.156 1.212-.468.288-.32.432-.72.432-1.2v-.3h-.276zm4.392 2.712h-1.128v-9.072h1.128v9.072zm5.037-4.248a1.429 1.429 0 00-.54-.504 1.514 1.514 0 00-.78-.204c-.128 0-.256.016-.384.048a1.014 1.014 0 00-.348.132.725.725 0 00-.24.228.615.615 0 00-.084.336c0 .24.108.42.324.54.216.112.54.216.972.312.272.064.524.14.756.228.232.088.432.2.6.336.176.128.312.284.408.468.096.184.144.4.144.648 0 .336-.064.62-.192.852-.128.232-.3.424-.516.576a2.094 2.094 0 01-.72.312 3.655 3.655 0 01-.84.096 3.37 3.37 0 01-1.272-.252 2.485 2.485 0 01-1.02-.768l.804-.684c.152.224.36.412.624.564.272.152.568.228.888.228.144 0 .28-.012.408-.036.136-.032.256-.08.36-.144a.727.727 0 00.264-.252.745.745 0 00.096-.396c0-.264-.128-.46-.384-.588-.248-.128-.616-.248-1.104-.36a9.454 9.454 0 01-.588-.168 2.109 2.109 0 01-.528-.288 1.507 1.507 0 01-.396-.444 1.438 1.438 0 01-.144-.672c0-.304.06-.564.18-.78.128-.224.292-.404.492-.54.2-.144.428-.248.684-.312a2.974 2.974 0 011.968.132c.384.16.68.392.888.696l-.78.66zM493.459 262.443h3.792v1.056h-4.98v-8.496h1.188v7.44zm10.43-1.8c0 .44-.08.844-.24 1.212a2.828 2.828 0 01-.648.96 2.984 2.984 0 01-.972.624 3.36 3.36 0 01-1.212.216 3.36 3.36 0 01-1.212-.216c-.376-.152-.7-.36-.972-.624a3.079 3.079 0 01-.648-.96 3.145 3.145 0 01-.228-1.212c0-.44.076-.84.228-1.2.16-.368.376-.684.648-.948a2.83 2.83 0 01.972-.612c.376-.152.78-.228 1.212-.228.432 0 .836.076 1.212.228a2.83 2.83 0 011.62 1.56c.16.36.24.76.24 1.2zm-1.176 0c0-.272-.044-.532-.132-.78a1.832 1.832 0 00-.96-1.104 1.828 1.828 0 00-.804-.168c-.304 0-.576.056-.816.168a1.74 1.74 0 00-.588.456c-.16.184-.284.4-.372.648-.08.248-.12.508-.12.78s.04.532.12.78c.088.248.212.468.372.66s.356.344.588.456c.24.112.512.168.816.168.304 0 .572-.056.804-.168.24-.112.44-.264.6-.456.16-.192.28-.412.36-.66.088-.248.132-.508.132-.78zm3.184 3.828c.248.28.556.504.924.672.376.168.76.252 1.152.252.376 0 .692-.056.948-.168.256-.104.46-.252.612-.444.16-.184.272-.404.336-.66.072-.256.108-.532.108-.828v-.732h-.024c-.208.32-.492.564-.852.732a2.69 2.69 0 01-1.152.252c-.432 0-.828-.076-1.188-.228a2.67 2.67 0 01-.9-.624 2.817 2.817 0 01-.576-.924 3.232 3.232 0 01-.204-1.152c0-.408.068-.792.204-1.152a2.79 2.79 0 01.576-.936c.248-.272.548-.484.9-.636a2.81 2.81 0 011.176-.24c.408 0 .796.088 1.164.264.376.176.672.444.888.804h.024v-.912h1.092v5.4c0 .416-.052.812-.156 1.188a2.54 2.54 0 01-.528 1.008 2.617 2.617 0 01-.972.708c-.4.176-.896.264-1.488.264-.496 0-.996-.092-1.5-.276a3.737 3.737 0 01-1.284-.756l.72-.876zm.348-3.876c0 .264.04.516.12.756.088.24.212.452.372.636.168.184.368.332.6.444a1.8 1.8 0 00.792.168c.288 0 .552-.052.792-.156.24-.104.444-.244.612-.42.168-.184.296-.396.384-.636.096-.248.144-.512.144-.792 0-.272-.048-.528-.144-.768a1.813 1.813 0 00-.396-.636 1.77 1.77 0 00-.612-.432 1.771 1.771 0 00-.78-.168 1.8 1.8 0 00-.792.168 1.8 1.8 0 00-.6.432c-.16.176-.284.388-.372.636-.08.24-.12.496-.12.768zm7.93 2.904h-1.128v-5.688h1.128v5.688zm.192-7.74c0 .208-.076.38-.228.516a.74.74 0 01-.528.204.74.74 0 01-.528-.204.704.704 0 01-.216-.516.68.68 0 01.216-.516.718.718 0 01.528-.216c.208 0 .384.072.528.216a.662.662 0 01.228.516zm2.793 2.052a10.052 10.052 0 01.048.936h.036c.072-.152.168-.292.288-.42.128-.136.272-.252.432-.348a1.98 1.98 0 01.528-.24c.192-.056.392-.084.6-.084.368 0 .684.064.948.192a1.857 1.857 0 011.044 1.224c.088.28.132.58.132.9v3.528h-1.128v-3.156c0-.232-.02-.452-.06-.66a1.507 1.507 0 00-.192-.552 1.074 1.074 0 00-.396-.384c-.168-.096-.384-.144-.648-.144-.448 0-.816.172-1.104.516-.28.336-.42.788-.42 1.356v3.024h-1.128v-4.464a18.354 18.354 0 00-.048-1.224h1.068zM260.707 386.857h1.188v3.552h4.296v-3.552h1.2v8.496h-1.2v-3.888h-4.296v3.888h-1.188v-8.496zm14.442 5.64c0 .44-.08.844-.24 1.212a2.828 2.828 0 01-.648.96 2.984 2.984 0 01-.972.624 3.36 3.36 0 01-1.212.216 3.36 3.36 0 01-1.212-.216c-.376-.152-.7-.36-.972-.624a3.079 3.079 0 01-.648-.96 3.145 3.145 0 01-.228-1.212c0-.44.076-.84.228-1.2.16-.368.376-.684.648-.948a2.83 2.83 0 01.972-.612c.376-.152.78-.228 1.212-.228.432 0 .836.076 1.212.228a2.83 2.83 0 011.62 1.56c.16.36.24.76.24 1.2zm-1.176 0c0-.272-.044-.532-.132-.78a1.832 1.832 0 00-.96-1.104 1.828 1.828 0 00-.804-.168c-.304 0-.576.056-.816.168a1.74 1.74 0 00-.588.456c-.16.184-.284.4-.372.648-.08.248-.12.508-.12.78s.04.532.12.78c.088.248.212.468.372.66s.356.344.588.456c.24.112.512.168.816.168.304 0 .572-.056.804-.168.24-.112.44-.264.6-.456.16-.192.28-.412.36-.66.088-.248.132-.508.132-.78zm3.844-1.896c.144-.304.372-.56.684-.768.32-.216.696-.324 1.128-.324.384 0 .728.088 1.032.264.312.176.556.468.732.876a1.99 1.99 0 01.804-.84c.344-.2.72-.3 1.128-.3.368 0 .684.064.948.192a1.857 1.857 0 011.044 1.224c.088.28.132.58.132.9v3.528h-1.128v-3.156c0-.232-.02-.452-.06-.66a1.68 1.68 0 00-.204-.552 1.103 1.103 0 00-.384-.384c-.16-.096-.364-.144-.612-.144-.256 0-.476.056-.66.168a1.348 1.348 0 00-.456.42 1.88 1.88 0 00-.252.576 3.033 3.033 0 00-.072.66v3.072h-1.128v-3.384c0-.224-.02-.428-.06-.612a1.19 1.19 0 00-.204-.468.94.94 0 00-.372-.312 1.2 1.2 0 00-.564-.12c-.416 0-.764.172-1.044.516-.272.336-.408.788-.408 1.356v3.024h-1.128v-4.464a18.354 18.354 0 00-.048-1.224h1.068a10.052 10.052 0 01.048.936h.036zm13.701 1.404a1.966 1.966 0 00-.12-.624 1.33 1.33 0 00-.3-.516 1.283 1.283 0 00-.492-.336 1.63 1.63 0 00-.684-.132c-.24 0-.468.044-.684.132-.208.08-.392.192-.552.336a1.93 1.93 0 00-.384.516c-.096.192-.152.4-.168.624h3.384zm1.14.456v.192c0 .064-.004.128-.012.192h-4.512c.008.24.06.468.156.684.104.208.24.392.408.552.168.152.36.272.576.36.224.088.46.132.708.132.384 0 .716-.084.996-.252.28-.168.5-.372.66-.612l.792.636c-.304.4-.664.696-1.08.888a3.29 3.29 0 01-1.368.276c-.432 0-.832-.072-1.2-.216a2.82 2.82 0 01-.948-.6 2.876 2.876 0 01-.624-.948 3.177 3.177 0 01-.228-1.224c0-.44.072-.844.216-1.212.152-.376.36-.696.624-.96s.576-.468.936-.612c.36-.152.748-.228 1.164-.228.416 0 .792.068 1.128.204.344.136.632.332.864.588.24.256.424.568.552.936.128.36.192.768.192 1.224zM71.65 200.006h.025v-6.792h1.188v8.496h-1.5l-4.488-6.936h-.024v6.936h-1.188v-8.496h1.548l4.44 6.792zm7.386-1.644a1.966 1.966 0 00-.12-.624 1.33 1.33 0 00-.3-.516 1.283 1.283 0 00-.492-.336 1.63 1.63 0 00-.684-.132c-.24 0-.468.044-.684.132-.208.08-.392.192-.552.336a1.93 1.93 0 00-.384.516c-.096.192-.152.4-.168.624h3.384zm1.14.456v.192c0 .064-.004.128-.012.192h-4.512c.008.24.06.468.156.684.104.208.24.392.408.552.168.152.36.272.576.36.224.088.46.132.708.132.384 0 .716-.084.996-.252.28-.168.5-.372.66-.612l.792.636c-.304.4-.664.696-1.08.888a3.29 3.29 0 01-1.368.276c-.432 0-.832-.072-1.2-.216a2.82 2.82 0 01-.948-.6 2.876 2.876 0 01-.624-.948 3.177 3.177 0 01-.228-1.224c0-.44.072-.844.216-1.212.152-.376.36-.696.624-.96s.576-.468.936-.612c.36-.152.748-.228 1.164-.228.416 0 .792.068 1.128.204.344.136.632.332.864.588.24.256.424.568.552.936.128.36.192.768.192 1.224zm1.995-2.796l1.284 4.344h.024l1.356-4.344h1.188l1.38 4.344h.024l1.284-4.344H89.9l-1.884 5.688H86.84l-1.404-4.272h-.024l-1.392 4.272h-1.176l-1.896-5.688h1.224zm15.161 5.904c-.56 0-1.047-.092-1.463-.276a3.031 3.031 0 01-1.032-.756 3.153 3.153 0 01-.612-1.068 4.185 4.185 0 01-.192-1.26v-5.352h1.188v5.28c0 .288.035.576.108.864.072.28.188.532.348.756.167.224.383.404.647.54.273.136.609.204 1.008.204.393 0 .725-.068.997-.204.272-.136.488-.316.648-.54a2.13 2.13 0 00.36-.756 3.55 3.55 0 00.108-.864v-5.28h1.188v5.352c0 .432-.068.852-.204 1.26-.128.4-.328.756-.6 1.068a3.031 3.031 0 01-1.032.756c-.416.184-.904.276-1.465.276zm8.316-4.464a1.429 1.429 0 00-.54-.504 1.514 1.514 0 00-.78-.204c-.128 0-.256.016-.384.048a1.014 1.014 0 00-.348.132.725.725 0 00-.24.228.615.615 0 00-.084.336c0 .24.108.42.324.54.216.112.54.216.972.312.272.064.524.14.756.228.232.088.432.2.6.336.176.128.312.284.408.468.096.184.144.4.144.648 0 .336-.064.62-.192.852-.128.232-.3.424-.516.576a2.094 2.094 0 01-.72.312 3.655 3.655 0 01-.84.096 3.37 3.37 0 01-1.272-.252 2.485 2.485 0 01-1.02-.768l.804-.684c.152.224.36.412.624.564.272.152.568.228.888.228.144 0 .28-.012.408-.036.136-.032.256-.08.36-.144a.727.727 0 00.264-.252.745.745 0 00.096-.396c0-.264-.128-.46-.384-.588-.248-.128-.616-.248-1.104-.36a9.454 9.454 0 01-.588-.168 2.109 2.109 0 01-.528-.288 1.507 1.507 0 01-.396-.444 1.438 1.438 0 01-.144-.672c0-.304.06-.564.18-.78.128-.224.292-.404.492-.54.2-.144.428-.248.684-.312a2.974 2.974 0 011.968.132c.384.16.68.392.888.696l-.78.66zm6.424.9a1.966 1.966 0 00-.12-.624 1.33 1.33 0 00-.3-.516 1.283 1.283 0 00-.492-.336 1.63 1.63 0 00-.684-.132c-.24 0-.468.044-.684.132-.208.08-.392.192-.552.336a1.93 1.93 0 00-.384.516c-.096.192-.152.4-.168.624h3.384zm1.14.456v.192c0 .064-.004.128-.012.192h-4.512c.008.24.06.468.156.684.104.208.24.392.408.552.168.152.36.272.576.36.224.088.46.132.708.132.384 0 .716-.084.996-.252.28-.168.5-.372.66-.612l.792.636c-.304.4-.664.696-1.08.888a3.29 3.29 0 01-1.368.276c-.432 0-.832-.072-1.2-.216a2.82 2.82 0 01-.948-.6 2.876 2.876 0 01-.624-.948 3.177 3.177 0 01-.228-1.224c0-.44.072-.844.216-1.212.152-.376.36-.696.624-.96s.576-.468.936-.612c.36-.152.748-.228 1.164-.228.416 0 .792.068 1.128.204.344.136.632.332.864.588.24.256.424.568.552.936.128.36.192.768.192 1.224zm1.574-1.572a18.354 18.354 0 00-.048-1.224h1.068a10.865 10.865 0 01.048.96h.036c.16-.336.392-.604.696-.804a1.84 1.84 0 011.044-.312c.176 0 .324.016.444.048l-.048 1.044c-.16-.04-.332-.06-.516-.06-.272 0-.508.052-.708.156-.2.096-.368.228-.504.396a1.755 1.755 0 00-.288.588 2.396 2.396 0 00-.096.684v2.988h-1.128v-4.464z" fill="#979797"/><path d="M459.711 199.526h2.96v.704h-3.752v-5.664h3.632v.696h-2.84v1.696h2.672v.68h-2.672v1.888zm4.901-1.288l-1.384-1.8h.928l.928 1.304.936-1.304h.88l-1.368 1.792 1.528 2h-.936l-1.056-1.48-1.072 1.48h-.904l1.52-1.992zm3.918 1.992h-.752v-3.792h.752v3.792zm.128-5.16a.443.443 0 01-.152.344.492.492 0 01-.352.136.492.492 0 01-.352-.136.47.47 0 01-.144-.344c0-.139.048-.253.144-.344a.478.478 0 01.352-.144c.139 0 .256.048.352.144a.443.443 0 01.152.344zm3.23 2.328a.942.942 0 00-.36-.336 1.004 1.004 0 00-.52-.136c-.085 0-.17.011-.256.032a.677.677 0 00-.232.088.483.483 0 00-.16.152.413.413 0 00-.056.224c0 .16.072.28.216.36.144.075.36.144.648.208.182.043.35.093.504.152.155.059.288.133.4.224a.882.882 0 01.272.312.923.923 0 01.096.432c0 .224-.042.413-.128.568-.085.155-.2.283-.344.384a1.39 1.39 0 01-.48.208 2.416 2.416 0 01-.56.064c-.288 0-.57-.056-.848-.168a1.664 1.664 0 01-.68-.512l.536-.456c.102.149.24.275.416.376a1.2 1.2 0 00.592.152c.096 0 .187-.008.272-.024a.783.783 0 00.24-.096.482.482 0 00.176-.168.492.492 0 00.064-.264c0-.176-.085-.307-.256-.392-.165-.085-.41-.165-.736-.24a6.205 6.205 0 01-.392-.112 1.412 1.412 0 01-.352-.192 1.028 1.028 0 01-.264-.296.96.96 0 01-.096-.448c0-.203.04-.376.12-.52.086-.149.195-.269.328-.36.134-.096.286-.165.456-.208a1.974 1.974 0 011.312.088c.256.107.454.261.592.464l-.52.44zm3.363-.344h-1.008v1.976c0 .229.043.395.128.496.085.096.221.144.408.144.069 0 .144-.008.224-.024a.857.857 0 00.216-.072l.024.616a1.595 1.595 0 01-.304.072 1.741 1.741 0 01-.336.032c-.357 0-.632-.099-.824-.296-.187-.197-.28-.493-.28-.888v-2.056h-.728v-.616h.728v-1.088h.744v1.088h1.008v.616zm1.537 3.176h-.752v-3.792h.752v3.792zm.128-5.16a.443.443 0 01-.152.344.493.493 0 01-.352.136.492.492 0 01-.352-.136.47.47 0 01-.144-.344c0-.139.048-.253.144-.344a.478.478 0 01.352-.144.48.48 0 01.352.144.443.443 0 01.152.344zm1.862 1.368a7.245 7.245 0 01.032.624h.024a1.09 1.09 0 01.192-.28c.085-.091.181-.168.288-.232.107-.069.224-.123.352-.16.128-.037.261-.056.4-.056.245 0 .456.043.632.128a1.231 1.231 0 01.696.816c.059.187.088.387.088.6v2.352h-.752v-2.104a2.3 2.3 0 00-.04-.44.998.998 0 00-.128-.368.713.713 0 00-.264-.256.864.864 0 00-.432-.096.918.918 0 00-.736.344c-.187.224-.28.525-.28.904v2.016h-.752v-2.976a13.33 13.33 0 00-.032-.816h.712zm4.272 4.44c.166.187.371.336.616.448.251.112.507.168.768.168.251 0 .462-.037.632-.112a.969.969 0 00.408-.296c.107-.123.182-.269.224-.44.048-.171.072-.355.072-.552v-.488h-.016a1.333 1.333 0 01-.568.488c-.24.112-.496.168-.768.168-.288 0-.552-.051-.792-.152a1.789 1.789 0 01-.984-1.032 2.17 2.17 0 01-.136-.768c0-.272.046-.528.136-.768a1.87 1.87 0 01.384-.624 1.74 1.74 0 01.6-.424c.235-.107.496-.16.784-.16.272 0 .531.059.776.176.251.117.448.296.592.536h.016v-.608h.728v3.6c0 .277-.034.541-.104.792a1.68 1.68 0 01-.352.672 1.74 1.74 0 01-.648.472c-.266.117-.597.176-.992.176-.33 0-.664-.061-1-.184a2.487 2.487 0 01-.856-.504l.48-.584zm.232-2.584c0 .176.027.344.08.504.059.16.142.301.248.424.112.123.246.221.4.296.155.075.331.112.528.112.192 0 .368-.035.528-.104.16-.069.296-.163.408-.28a1.447 1.447 0 00.256-1.464 1.193 1.193 0 00-.264-.424 1.171 1.171 0 00-.408-.288 1.174 1.174 0 00-.52-.112c-.197 0-.373.037-.528.112a1.197 1.197 0 00-.4.288 1.252 1.252 0 00-.248.424 1.62 1.62 0 00-.08.512zm8.727 2.08a2.39 2.39 0 01-.976-.184 2.02 2.02 0 01-1.096-1.216 2.8 2.8 0 01-.128-.84v-3.568h.792v3.52c0 .192.024.384.072.576.048.187.125.355.232.504.112.149.256.269.432.36.181.091.405.136.672.136.261 0 .483-.045.664-.136.181-.091.325-.211.432-.36.112-.149.192-.317.24-.504.048-.192.072-.384.072-.576v-3.52h.792v3.568c0 .288-.045.568-.136.84a1.996 1.996 0 01-.4.712 2.02 2.02 0 01-.688.504 2.39 2.39 0 01-.976.184zm5.543-2.976a.942.942 0 00-.36-.336 1.004 1.004 0 00-.52-.136c-.085 0-.17.011-.256.032a.677.677 0 00-.232.088.483.483 0 00-.16.152.413.413 0 00-.056.224c0 .16.072.28.216.36.144.075.36.144.648.208.182.043.35.093.504.152.155.059.288.133.4.224a.882.882 0 01.272.312.923.923 0 01.096.432c0 .224-.042.413-.128.568-.085.155-.2.283-.344.384a1.39 1.39 0 01-.48.208 2.416 2.416 0 01-.56.064c-.288 0-.57-.056-.848-.168a1.664 1.664 0 01-.68-.512l.536-.456c.102.149.24.275.416.376a1.2 1.2 0 00.592.152c.096 0 .187-.008.272-.024a.783.783 0 00.24-.096.482.482 0 00.176-.168.492.492 0 00.064-.264c0-.176-.085-.307-.256-.392-.165-.085-.41-.165-.736-.24a6.205 6.205 0 01-.392-.112 1.412 1.412 0 01-.352-.192 1.028 1.028 0 01-.264-.296.96.96 0 01-.096-.448c0-.203.04-.376.12-.52.086-.149.195-.269.328-.36.134-.096.286-.165.456-.208a1.974 1.974 0 011.312.088c.256.107.454.261.592.464l-.52.44zm4.283.6a1.303 1.303 0 00-.08-.416.89.89 0 00-.528-.568 1.082 1.082 0 00-.456-.088c-.16 0-.312.029-.456.088a1.17 1.17 0 00-.368.224 1.292 1.292 0 00-.256.344 1.103 1.103 0 00-.112.416h2.256zm.76.304v.128a1.1 1.1 0 01-.008.128h-3.008c.005.16.04.312.104.456.069.139.16.261.272.368a1.272 1.272 0 00.856.328c.256 0 .477-.056.664-.168.187-.112.333-.248.44-.408l.528.424a1.904 1.904 0 01-.72.592 2.189 2.189 0 01-.912.184c-.288 0-.555-.048-.8-.144a1.878 1.878 0 01-.632-.4 1.916 1.916 0 01-.416-.632 2.122 2.122 0 01-.152-.816c0-.293.048-.563.144-.808a1.836 1.836 0 011.04-1.048c.24-.101.499-.152.776-.152s.528.045.752.136c.229.091.421.221.576.392.16.171.283.379.368.624.085.24.128.512.128.816zm1.05-1.048a13.33 13.33 0 00-.032-.816h.712a7.882 7.882 0 01.032.64h.024c.107-.224.261-.403.464-.536.208-.139.44-.208.696-.208.117 0 .216.011.296.032l-.032.696a1.399 1.399 0 00-.344-.04 1.014 1.014 0 00-.808.368 1.186 1.186 0 00-.192.392 1.585 1.585 0 00-.064.456v1.992h-.752v-2.976z" fill="#121212"/></g></svg>