<svg width="624" height="418" viewBox="0 0 624 418" fill="none" xmlns="http://www.w3.org/2000/svg"><g clip-path="url(#clip0)"><path d="M152.378 90.398s-7.694-5.231-18.944-1.202c-11.251 4.03-13.776 19.168-11.013 31.467 2.776 12.285-12.718 54.241-12.718 54.241s8.051 11.322 36.197 6.989c0 0 20.981-38.112 19.421-65.471-1.56-27.345-12.943-26.024-12.943-26.024z" fill="#000"/><path d="M161.262 137.678c10.576-3.382 17.054 5.416 23.109 21.797 6.055 16.38 8.104 18.019 8.104 18.019l23.387 15.02-1.944 8.758s-22.263-8.705-27.643-14.254c-5.381-5.535-20.862-33.607-20.862-33.607l-4.151-15.733z" fill="#FFBBA9"/><path d="M109.715 243.479s-4.587 23.224-3.834 58.178c0 0-18.085 26.645-3.16 102.67h7.827s6.399-64.677 11.29-82.207c4.892-17.53 22.964-22.907 23.942-76.197l-36.065-2.444zM73.928 311.763c-4.547-14.98-16.234-40.067-46.231-74.07 0 0-1.785-.925-4.204.555-2.552 1.559-2.552 3.395-2.552 3.395s15.045 32.748 24.63 56.738c3.226 8.071 11.039 13.382 19.738 13.382h8.62z" fill="#FFCABC"/><path d="M128.541 340.733s.106 11.176-7.232 11.361c-10.364.277-10.748-11.004-22.487-10.634-11.74.37-35.96 3.302-43.667-15.034-3.98-9.471 1.467-21.638-11.37-30.806-12.836-9.168-6.61-19.432 0-24.928 6.61-5.482-2.842-11.493 4.033-14.293 1.639-.661 3.252-.582 4.759-.093.886.304 1.705.74 2.499 1.255 3.635 2.418 6.2 6.632 6.2 6.632 19.447-53.224 54.071-60.252 54.071-60.252l34.241 11.81c.806 82.815-21.047 124.982-21.047 124.982z" fill="#000"/><path d="M161.262 137.678s-7.985 2.695-19.355.964c-11.369-1.73-15.058-8.851-23.043-4.267-11.991 6.883-6.385 30.595-3.371 42.934 1.124 4.597 2.552 16.671-.159 26.645 0 0 15.971 12.418 34.241 11.797l9.968-21.665c0-.013 21.682-25.932 1.719-56.408z" fill="#E4E4E4"/><path d="M140.968 117.783s1.335 11.216-2.829 21.427c0 0 5.922 8.745 11.581 2.986 0 0 .515-10.278 6.874-21.916 4.27-7.781-15.626-2.497-15.626-2.497z" fill="#FDAF9A"/><path d="M131.885 118.166s-4.997-3.157-4.442 1.717c.661 5.654 6.174 6.751 6.756 4.782.595-1.981-2.314-6.499-2.314-6.499zM160.573 112.05s3.173-4.994 4.746-.344c1.825 5.39-2.697 8.732-4.072 7.2-1.375-1.532-.674-6.856-.674-6.856z" fill="#FFC4B5"/><path d="M150.249 135.049c-9.069 2.034-15.52-2.748-19.5-20.503-2.049-9.154 1.349-15.826 11.515-18.098 10.167-2.272 15.693 2.391 17.755 11.546 4.27 19.089-.396 24.967-9.77 27.055z" fill="#FFC4B5"/><path d="M158.432 115.009c.357.872-.224 1.955-1.322 2.404-1.097.449-2.274.106-2.644-.766-.357-.872.225-1.955 1.322-2.404 1.098-.45 2.274-.106 2.644.766zM139.883 119.685c.146.938-.687 1.85-1.851 2.021-1.176.185-2.234-.422-2.392-1.36-.146-.938.687-1.85 1.85-2.021 1.177-.185 2.248.422 2.393 1.36z" fill="#FDAF9A"/><path d="M152.112 106.739a.434.434 0 01-.251-.079c-1.547-1.031-3.754-.489-3.768-.476a.471.471 0 01-.568-.33.471.471 0 01.33-.568c.106-.026 2.631-.661 4.522.608a.482.482 0 01.132.647.55.55 0 01-.397.198zM135.033 110.557a.544.544 0 01-.238-.066.458.458 0 01-.159-.634c1.177-1.955 3.728-2.457 3.834-2.471a.475.475 0 01.542.37.464.464 0 01-.37.542c-.027 0-2.248.449-3.213 2.048a.466.466 0 01-.396.211zM152.509 111.706c.251 1.123-.053 2.153-.674 2.286-.622.145-1.335-.661-1.587-1.784-.251-1.123.053-2.153.675-2.285.621-.132 1.335.66 1.586 1.783zM139.909 114.414c.252 1.123-.052 2.154-.674 2.286-.621.145-1.335-.661-1.586-1.784-.251-1.123.053-2.153.674-2.285.621-.132 1.335.66 1.586 1.783zM143.982 125.075s5.831-.476 8.395-2.642c0 0-.7 4.544-3.873 4.861-3.173.331-4.522-2.219-4.522-2.219z" fill="#000"/><path d="M149.336 111.838s.211-2.959 1.335-2.998c1.137-.04 2.499 2.14 2.499 2.14l1.414-1.216-1.56.568s-1.388-2.285-2.472-2.047c-1.534.33-1.216 3.553-1.216 3.553zM140.599 114.137s-1.455-2.589-2.499-2.14c-1.044.449-1.335 2.998-1.335 2.998l-1.798-.488 1.652-.146s.278-2.668 1.362-2.906c1.534-.357 2.618 2.682 2.618 2.682z" fill="#000"/><path d="M146.917 119.83l-.463-.885c.753-.396.82-.938.74-1.307-.105-.542-.542-.965-.859-.991-.185-.013-.344.145-.463.462l-.938-.343c.396-1.084 1.163-1.136 1.467-1.123.793.066 1.573.845 1.772 1.783.211.978-.265 1.876-1.256 2.404z" fill="#FBA48D"/><path d="M132.6 121.363s-2.802-10.291-1.137-17.557c0 0 7.893-10.977 23.123-5.548 0 0 4.521 7.266 6.755 17.438 0 0 .569-3.66-.952-11.797-1.52-8.138-8.738-13.197-18.653-11.56-9.902 1.626-20.505 11.467-9.136 29.024z" fill="#000"/><path d="M148.571 95.973s.608 2.682-2.01 9.604c0 0-1.877-1.968-4.085 0-2.207 1.968-6.676 1.308-8.196 2.364-1.521 1.057-1.521 3.488-1.521 3.488s-1.322-3.025 0-6.645c0 0-2.974 3.778-2.578 8.428 0 0-4.032-.647-3.847-7.292.185-6.645 9.625-17.384 20.227-16.684 10.603.7 13.115 17.464 13.115 17.464s-.965-.753-2.485-.423c0 0-.238-3.554-2.618-8.019 0 0 1.097 3.224 0 6.711 0 0-2.948-1.545-5.275-1.057.013-.013 1.441-2.827-.727-7.939z" fill="#000"/><path d="M116.167 136.489c5.156-4.069 9.175 1.11 10.153 8.256.978 7.147-8.342 49.314-15.534 47.755-2.776-.594-3.913-11.651-3.913-11.651s2.816-11.85 4.627-29.697c.859-8.19 1.983-12.536 4.667-14.663z" fill="#FFBBA9"/><path d="M101.161 186.543c-6.94-6.619-19.394-28.548-22.554-39.724l5.275-2.113s15.865 22.682 23.096 28.402c7.232 5.72 9.783 12.087 6.544 17.543-3.225 5.456-10.893-2.708-12.361-4.108z" fill="#FFBBA9"/><path d="M80.776 132.196c-.357 7.173 5.486 8.877 2.895 14.386-.542 1.136-1.348 1.743-2.194 2.034-1.613.568-3.398.026-4.588-1.176-2.776-2.813-7.086-5.786-9.373-7.094-2.605-1.506-1.124-1.915-1.124-1.915-.251-.119-.502-.211-.74-.317-1.851-.78-3.345-1.07-1.996-1.889 1.52-.938 6.887 1.017 6.887 1.017-6.993-4.65-8.884-3.514-7.615-4.505 1.746-1.347 8.382 1.757 8.58 1.85-3.688-3.488-6.372-4.28-4.904-4.809 1.48-.528 8.791 4.756 11.462 6.737.595.45.965.727.965.727-.106-5.852 1.745-5.046 1.745-5.046z" fill="#FFBBA9"/><path d="M78.052 136.515c.594.45.965.727.965.727s-1.256 2.1.37 4.822a4.314 4.314 0 01-1.335-5.549zM71.918 140.637c-.622-.343-4.151-2.325-5.553-2.206-.25-.119-.502-.211-.74-.317.952-1.242 5.592 2.021 6.293 2.523z" fill="#EF6E4B"/><path d="M123.267 418h-23.175c-1.507-4.306 1.282-8.639.807-12.431-.807-6.42 2.934-2.88 2.934-2.88.661-6.909 10.378-8.216 10.273-5.138-.159 4.531.714 7.331 2.009 9.207 2.618 3.765 6.901 3.739 7.628 6.434.08.264.132.528.172.766.727 3.395-.648 4.042-.648 4.042z" fill="#000"/><path d="M123.928 413.971c-4.799 1.109-15.865-.344-16.301-3.118-.423-2.695 5.539-3.963 8.501-4.082 2.617 3.765 6.901 3.739 7.628 6.434.066.264.132.528.172.766z" fill="#333"/><path d="M27.988 238.618c-2.473-2.246-6.478 1.466-6.478 1.466s2.155 3.197.766 4.491c-1.388 1.295-3.014-1.651-5.75-.369-.225.105-.45.237-.675.383-2.141 1.281-4.376 3.963-6.173 5.997-.37.41-.714.793-1.045 1.123-2.102 2.206-7.509 3.488-8.527-2.378-1.018-5.865 5.592-12.748 12.837-19.062 7.245-6.315 11.938-2.563 11.938-2.563s1.64 2.655 1.64 4.306c0 1.639 1.467 2.471 2.286 4.03.833 1.558-.82 2.576-.82 2.576z" fill="#000"/><path d="M15.85 244.589c-2.14 1.281-4.375 3.963-6.173 5.997-2.71.647-5.156.449-5.54-2.1-.925-6.156 11.37-13.99 10.392-9.67-.502 2.179.357 4.24 1.322 5.773z" fill="#333"/><path d="M445.023 407.987c-1.137-.595-2.195-1.916-3.147-3.58 0 0-.819-4.928 0-10.106.82-5.179-1.441-9.406-8.778-11.004-7.139-1.546-11.369 1.889-9.717 16.222-1.084 5.958-1.309 12.748 1.164 18.481h21.959c.013 0 3.477-7.411-1.481-10.013z" fill="#DDD"/><path d="M464.298 330.733s0 14.293-8.078 28.97c-8.223 14.941-18.389 35.43-18.389 35.43s-6.769 6.605-11.079-4.333c0 0 3.041-38.072 10.008-51.996 6.967-13.923 27.538-8.071 27.538-8.071zM569.612 284.167s13.075 54.968 21.403 69.472c0 0-1.917 6.064-10.92 7.9 0 0-28.463-41.797-30.287-59.406-1.851-17.597 19.804-17.966 19.804-17.966z" fill="#FFCABC"/><path d="M575.929 297.099c-3.477 8.376-30.354 8.825-30.354 8.825l-2.049-3.025-.542-.793-4.204-6.195s-44.539-43.647-53.212-39.988h-.013a4.625 4.625 0 00-.74.423c-5.963 4.253-6.518 27.556-13.565 66.672-.674 3.712-2.168 8.032-3.305 11.031-.132.317-.251.634-.37.924-.648 1.652-1.097 2.708-1.097 2.708-27.181 11.005-36.158-10.74-36.158-10.74s.318-.634.794-1.638c.105-.224.224-.475.343-.739 1.428-3.144 3.702-8.574 3.676-11.454-.027-3.157-.053-6.195-.08-9.102 0-.264 0-.515-.013-.766-.04-9.406-.026-17.569.026-24.663v-.753c.027-3.092.08-5.985.133-8.68v-.766c.238-12.365.634-20.621 1.057-26.116.013-.251.04-.516.053-.753.754-9.261 1.547-10.159 1.547-10.159l-5.447-37.821h59.412s8.924 8.93 20.505 20.727c.251.237.489.475.714.713 4.204 4.267 8.739 8.904 13.286 13.607.186.185.371.37.529.541 1.785 1.85 3.583 3.699 5.354 5.535.225.225.424.45.648.674a1240.912 1240.912 0 0116.684 17.583c.172.172.344.357.503.528 6.769 7.319 11.924 13.171 13.696 15.906 4.706 7.199 8.382 16.579 10.404 22.365v.013c.106.264.185.502.278.753a115.59 115.59 0 011.507 4.623z" fill="#000"/><path d="M446.766 237.032c-2.419 2.867-5.949 4.624-10.496 5.245.013-.251.039-.515.052-.753 4.284-.621 7.602-2.285 9.876-4.98 4.085-4.809 3.424-11.308 3.411-11.361l.74-.093c.027.278.701 6.883-3.583 11.942zM513.066 214.984c-.238.014-.45.027-.688.027-6.61 0-13.498-7.213-13.855-7.583l.529-.515c.093.106 6.954 7.292 13.3 7.345.238.251.476.475.714.726z" fill="#333"/><path d="M467.959 334.062c-.132.317-.251.634-.37.925-4.403 1.611-8.435 2.272-12.123 2.272-11.74 0-19.871-6.79-24.339-11.942.106-.225.225-.476.344-.74 5.711 6.711 17.913 16.579 36.488 9.485z" fill="#662C33"/><path d="M483.917 242.316c.978 4.215 1.612 8.799 1.639 13.62a4.634 4.634 0 00-.741.423c-.026-22.14-12.863-39.419-13.008-39.618l.581-.436c.119.146 7.721 10.41 11.317 25.245 1.494-.977 2.512-2.391 2.935-4.214 1.851-7.767-6.557-20.476-6.637-20.608l.608-.409c.357.541 8.66 13.091 6.756 21.176-.489 2.113-1.653 3.712-3.45 4.821zM550.071 253.466a116.617 116.617 0 01-4.429 4.571l-.396.396-.185-.529c-2.882-7.529-21.378-23.831-21.563-23.989l-.225-.212 3.081-5.099c.185.185.37.37.529.542l-2.578 4.28c3.596 1.242 6.147 1.466 7.945 1.242.225.224.423.449.648.673-.608.106-1.243.159-1.917.159-1.653 0-3.556-.344-5.685-.978 4.204 3.778 17.253 15.866 20.24 22.603a119.455 119.455 0 004.046-4.201c.172.185.33.357.489.542z" fill="#333"/><path d="M448.591 303.903l-.291.053c-.278.079-3.609.766-7.443.766-1.917 0-3.953-.172-5.777-.687 0-.264 0-.515-.014-.766 4.839 1.387 11.317.317 12.784.039l-1.229-30.515c-.687 1.677-2.049 3.963-4.614 5.218-1.216.621-2.578.911-4.085.911-.899 0-1.838-.106-2.829-.317v-.753c2.538.581 4.746.423 6.57-.502 3.107-1.545 4.35-4.835 4.72-6.143-2.446.37-7.403-.885-11.171-2.034v-.766c4.072 1.228 9.571 2.655 11.554 1.968l.476-.158 1.349 33.686zM574.449 292.489c-4.27 4.214-13.022 10.648-26.481 10.648-1.427 0-2.908-.08-4.442-.238l-.542-.793c16.367 1.876 26.626-5.799 31.187-10.37.106.264.185.502.278.753z" fill="#662C33"/><path d="M502.822 32.722s-1.639-3.752-8.527-3.765c-5.314 0-7.35 2.933-7.35 2.933-3.186 9.286-6.597 44.862-7.827 46.117-.621.647-40.057 27.173-40.057 27.173 21.403.396 34.756 26.751 34.756 26.751.687-8.666 24.854-42.986 25.118-46.038.49-5.746 10.709-31.533 3.887-53.171z" fill="gray"/><path d="M434.367 218.696s-.198 7.424 2.208 7.913c2.406.489 21.972 6.275 44.473-3.95 22.501-10.224 26.415-17.807 19.818-23.421-6.611-5.628-66.499 19.458-66.499 19.458z" fill="#999"/><path d="M425.351 110.332s-20.478-2.417-32.218 2.655c0 0-3.279 14.519 12.863 47.016 16.129 32.497 12.388 52.96 30.579 60.661 16.129 6.83 63.682-13.5 65.176-20.238 3.755-16.975-25.317-46.751-27.154-64.017-1.838-17.239-18.72-43.184-49.246-26.077z" fill="#999"/><path d="M393.132 112.987c-14.317 5.073-30.406 21.137-30.433 28.878-.026 7.741 13.432 10.727 13.432 10.727l22.052-10.727s6.306-4.399 2.287-17.226c-4.019-12.827-7.338-11.652-7.338-11.652z" fill="gray"/><path d="M451.937 127.307c-4.271 0-9.585-1.545-12.877-3.883-1.811-1.295-2.895-2.748-3.133-4.214-.807-5.086 4.138-7.662 4.349-7.768l.661 1.308c-.172.092-4.204 2.219-3.569 6.235.172 1.07 1.044 2.193 2.538 3.25 3.689 2.629 10.074 4.174 14.225 3.434 1.877-.33 3.094-1.004 3.636-1.994.661-1.216.092-2.603.092-2.616l1.349-.581c.039.079.859 2.021-.146 3.87-.766 1.414-2.34 2.352-4.68 2.761-.753.132-1.573.198-2.445.198zM433.785 142.777c-3.173 0-8.421-1.321-9.161-6.513-.371-2.642-.133-4.848.079-6.79.317-2.867.568-5.126-1.111-7.834-2.763-4.478-6.517-4.769-6.676-4.782l.093-1.466c.185.013 4.653.33 7.826 5.482 1.93 3.144 1.639 5.879 1.322 8.772-.211 1.955-.436 3.963-.079 6.42.793 5.601 7.945 5.258 8.249 5.244l.093 1.467h-.635z" fill="#DFE3EA"/><path d="M438.241 116.449s10.827-7.372 8.263-15.338c-2.565-7.979-37.427-7.424-46.417 2.114-8.99 9.538 19.447 15.866 19.447 15.866 2.195-4.439 16.261-4.928 18.707-2.642z" fill="gray"/><path d="M418.78 115.207c-5.143-1.744-8.183-5.443-7.086-9.723 1.097-4.28 23.188-4.386 27.366-.978 4.178 3.409-1.705 17.002-20.28 10.701z" fill="#646464"/><path d="M416.334 103.186s4.548 7.754 2.446 12.021c0 0 15.587 5.377 15.587-3.342 0 0-2.935-6.539-1.825-10.753l-16.208 2.074z" fill="#FDAF9A"/><path d="M411.14 96.409s-7.655-12.26-6.954-23.964c.357-5.852 3.371-8.15 3.371-8.15s-2.432-3.383.172-8.548c0 0 3.609 4.175 16.274 2.854 12.216-1.268 13.432 7.424 13.432 7.424 8.726 1.294 2.842 27.675-3.252 30.37H411.14v.014z" fill="#000"/><path d="M407.887 85.087s-4.403-4.386-4.945.74c-.634 5.945 4.773 8.336 5.83 6.447 1.058-1.89-.885-7.187-.885-7.187zM438.717 85.404s4.402-4.385 4.944.74c.621 5.945-4.773 8.336-5.83 6.447-1.058-1.89.886-7.186.886-7.186z" fill="#FFC4B5"/><path d="M422.839 106.62c-9.769 0-15.282-6.381-15.282-25.496 0-9.868 5.023-15.918 15.97-15.918 10.946 0 15.547 6.05 15.547 15.918 0 20.555-6.147 25.496-16.235 25.496z" fill="#FFC4B5"/><path d="M435.835 87.94c.171.978-.688 1.956-1.917 2.167-1.23.212-2.367-.41-2.539-1.387-.172-.977.688-1.955 1.917-2.166 1.23-.212 2.367.41 2.539 1.387zM415.74 88.482c-.066.991-1.123 1.73-2.366 1.652-1.243-.08-2.195-.951-2.129-1.942.067-.991 1.124-1.73 2.367-1.651 1.243.079 2.195.95 2.128 1.941z" fill="#FDAF9A"/><path d="M431.525 77.69a.523.523 0 01-.37-.093c-1.56-1.189-3.887-.766-3.927-.766a.491.491 0 01-.568-.396.482.482 0 01.383-.568c.106-.027 2.803-.502 4.694.95a.498.498 0 01.092.688.416.416 0 01-.304.185zM412.83 77.756a.484.484 0 01-.251-.859c1.851-1.52 4.561-1.11 4.667-1.096.264.04.45.29.41.554a.498.498 0 01-.555.41c-.014 0-2.393-.344-3.9.885a.43.43 0 01-.371.106zM430.52 83.198c0 1.216-.542 2.193-1.216 2.193-.674 0-1.216-.977-1.216-2.193 0-1.215.542-2.193 1.216-2.193.674 0 1.216.991 1.216 2.193zM417.472 83.198c0 1.216-.542 2.193-1.217 2.193-.674 0-1.216-.977-1.216-2.193 0-1.215.542-2.193 1.216-2.193.675 0 1.217.991 1.217 2.193z" fill="#000"/><path d="M410.543 67.333s10.405 3.804 25.331 2.734c0 0 3.186 3.963 2.802 17.953 0 0 8.739-25.192-16.776-25.192s-14.014 24.637-14.014 24.637-2.089-15.416 2.657-20.132z" fill="#000"/><path d="M423.448 89.724l-.727-.74 1.93-1.915c-1.877-2.642-1.864-8.772-1.864-9.049h1.044c0 .066-.013 6.658 1.904 8.732l.344.37-2.631 2.602z" fill="#FBA48D"/><path d="M416.969 92.908s9.611.41 14.463-.872c0 0 .859 6.988-6.597 7.332-7.866.37-7.866-6.46-7.866-6.46z" fill="#000"/><path d="M458.058 119.328c1.837-.343 1.652 4.452 0 3.065-1.653-1.387-1.838-2.721 0-3.065zM435.928 142.579c-.278 1.849-4.76.092-2.896-1.004 1.851-1.11 3.173-.846 2.896 1.004z" fill="#CFD8DC"/><path d="M416.228 152.592s-2.909 7.464-2.75 11.678c.172 4.214 1.547 3.672 1.547 3.672s-2.208.872-2.631 3.303c-.423 2.431 5.724 4.214 6.147 4.214.423 0 4.76-1.651 4.76-1.651l.912-13.792-3.834-2.404-4.151-5.02z" fill="#FDAF9A"/><path d="M418.556 151.615s5.301 3.302 7.364 5.31c2.049 2.021.885 17.596 0 18.336-.886.74-7.642 2.246-8.937 1.4-1.296-.845.502-5.429.502-5.429s3.398-.74 2.908.555c-.489 1.281 0 2.377 0 2.377l1.389-.554s-.688-3.488 0-6.051c.687-2.562-4.786-5.271-5.447-9.973-.661-4.677 2.221-5.971 2.221-5.971z" fill="#FFC4B5"/><path d="M363.571 144.032c-1.692-7.332 5.579-9.921 15.706-8.666 11.74 1.453 35.853 4.518 41.102 17.226 0 0 1.719 5.007-2.723 7.424-12.375 6.724-50.886-2.219-54.085-15.984z" fill="gray"/><path d="M400.312 139.17s-14-5.812-20.967-6.393c-6.968-.595 9.637 5.495 20.967 6.393z" fill="#626262"/><path d="M505.214 13.276c-1.057 1.202-2.802 5.879-2.802 5.879-.741 3.936-1.164 6.103-2.539 7.9-1.361 1.81-.647 4.98-.647 4.98s-5.341 2.748-9.836-.647c0 0 .476-3.158 0-4.043-.926-1.783-3.887-2.747-4.905-6.354-1.018-3.62-4.046-7.662-4.046-7.662s.873-1.876 2.446-.74c1.6 1.163 2.618 4.043 3.477 4.347.172.052.357.105.529.118 0 0 .013 0 .04.014.661.092 1.335-.053 1.745-.45.026-.013.079-.04.105-.092 1.455-1.69 1.785-6.645 1.732-8.864-.092-3.078.027-7.332 1.904-6.618 1.877.713.159 2.43 1.613 9.22l.701.093c.132.489 1.427-4.122 1.731-8.442.225-2.972 2.169-1.875 2.605-.938.436.938-.225 3.898-.357 6.064-.106 1.427-.225 2.906-.291 3.778l.82.45c2.961-5.166 1.956-7.306 3.688-7.412 1.719-.105 1.098 4.254.172 5.905-.397.714-.78 2.22-1.084 3.686 3.041-3.5 2.697-5.337 4.098-5.112 1.455.264.159 3.738-.899 4.94z" fill="#FFC4B5"/><path d="M492.086 21.36c-1.032-2.826-4.694-4.12-5.156-4.266.661.092 1.335-.053 1.745-.45 3.609 1.6 3.411 4.717 3.411 4.717z" fill="#FDAF9A"/><path d="M428.337 396.494s-2.036-4.135-.225-5.919c1.811-1.783 3.94 1.52 7.033.793 3.094-.74 3.808-2.933 4.614.066.807 2.986-.172 12.391-11.422 5.06z" fill="#999"/><path d="M439.972 396.309s-8.303 2.946-12.613 0l1.098 3.593s9.029.951 10.272-1.321l1.243-2.272zM439.867 400.774s-7.602-1.057-11.277.832v1.783s9.915-2.312 13.128 0l-1.851-2.615z" fill="#999"/><path d="M428.219 407.088s1.48-3.593 6.108-3.844c4.627-.264 7.747 2.285 7.747 2.285s-7.338-3.025-13.855 1.559z" fill="#999"/><path d="M623.999 357.18c-14.609 19.472-34.479 23.223-34.479 23.223-5.764-4.61-5.909-10.066-5.909-10.066s-5.566-4.954-6.293-7.332c-.741-2.377 4.772-9.537 8.077-8.798 2.274.502 3.596 2.312 4.204 3.382-2.736-6.143-.542-8.283 3.332-7.754 4.032.541.225 1.493 3.107 4.742.211.238.436.423.687.608.529.37 1.163.621 1.877.753.635.119 1.336.145 2.076.106.383-.014.78-.053 1.177-.119a15.704 15.704 0 002.3-.555 20.868 20.868 0 003.715-1.599c5.05-2.761 7.179-3.698 11.026-2.708 3.834.965 3.767 3.871 3.767 3.871l1.336 2.246z" fill="#DDD"/><path d="M623.998 357.18c-14.608 19.472-34.478 23.223-34.478 23.223 10.14-4.359 19.46-10.066 25.832-17.081 6.359-7.027 8.646-6.142 8.646-6.142zM596.712 355.172c.529.37 1.164.621 1.878.753-3.861.779-4.138 4.227-4.138 4.227l-1.64-.529c.357-4.148 3.623-4.438 3.9-4.451z" fill="#999"/><path d="M599.318 360.561l-1.719.053c-.648-2.43.185-3.884.991-4.689.635.118 1.336.145 2.076.105-2.036 2.008-1.348 4.531-1.348 4.531zM603.562 359.623l-1.706.225c-.661-1.731-.476-3.025-.013-3.937a15.673 15.673 0 002.3-.555c-1.401 2.088-.581 4.267-.581 4.267z" fill="#999"/><path d="M440.131 178.748s3.768 20.331-3.847 28.429c-7.615 8.098-2.578 1.44-.304-8.996 2.261-10.45.529-21.441 4.151-19.433zM475.297 169.686s12.017 3.95 18.297 15.033c.013 0-8.382-18.058-18.297-15.033z" fill="#626262"/><path d="M163.232 18.68c1.599.026 6.24 1.875 6.24 1.875 3.411 2.1 5.301 3.237 7.562 3.422 2.26.198 3.173 4.068 3.173 4.068s8.884 1.942 9.386-3.659c0 0-4.971-7.028-5.314-7.979-.701-1.889.581-4.716-1.415-7.9-2.01-3.183-2.961-8.137-2.961-8.137s-1.97-.621-2.195 1.32c-.211 1.97 1.243 4.65.886 5.496-.08.172-.159.33-.265.476 0 0-.013.013-.013.04-.383.541-.938.95-1.507.99-.026.014-.079.027-.132.014-2.221-.053-6.134-3.131-7.734-4.664-2.221-2.127-5.46-4.9-6.187-3.025-.727 1.876 1.692 1.757 5.764 7.385l-.41.581c.264.423-4.019-1.717-7.43-4.386-2.353-1.836-2.855.344-2.446 1.295.397.95 3.041 2.457 4.733 3.804 1.124.885 2.301 1.784 3.001 2.325l-.211.912c-5.817-1.268-6.729-3.461-7.972-2.246-1.23 1.202 2.419 3.673 4.27 4.095.793.185 2.168.912 3.464 1.665-4.64-.106-5.777-1.585-6.544-.41-.78 1.229 2.657 2.616 4.257 2.642z" fill="#FFC4B5"/><path d="M178.039 14.386c-1.414-2.655.093-6.248.291-6.684-.383.541-.939.95-1.507.99-1.216 3.739 1.216 5.694 1.216 5.694z" fill="#FDAF9A"/><path d="M424.809 18.68c-1.6.026-6.24 1.875-6.24 1.875-3.411 2.1-5.302 3.237-7.562 3.422-2.261.198-3.173 4.068-3.173 4.068s-8.884 1.942-9.387-3.659c0 0 4.971-7.028 5.315-7.979.701-1.889-.582-4.716 1.414-7.9 2.01-3.183 2.962-8.137 2.962-8.137s1.97-.621 2.194 1.32c.212 1.97-1.242 4.65-.885 5.496.079.172.158.33.264.476 0 0 .013.013.013.04.384.541.939.95 1.507.99.027.014.08.027.133.014 2.221-.053 6.134-3.131 7.733-4.664 2.221-2.127 5.46-4.9 6.188-3.025.727 1.876-1.693 1.757-5.765 7.385l.41.581c-.264.423 4.019-1.717 7.43-4.386 2.353-1.836 2.856.344 2.446 1.295-.397.95-3.041 2.457-4.733 3.804-1.124.885-2.3 1.784-3.001 2.325l.212.912c5.817-1.268 6.729-3.461 7.971-2.246 1.23 1.202-2.419 3.673-4.27 4.095-.793.185-2.168.912-3.463 1.665 4.64-.106 5.777-1.585 6.544-.41.793 1.229-2.658 2.616-4.257 2.642z" fill="#FFC4B5"/><path d="M410.002 14.386c1.414-2.655-.093-6.248-.291-6.684.383.541.939.95 1.507.99 1.216 3.739-1.216 5.694-1.216 5.694z" fill="#FDAF9A"/><path d="M346.678 287.958l-17.081-105.669-34.201 3.818-34.201-3.818-17.08 105.669-8.197 102.485s2.604 8.495 19.672 2.629c0 0 12.652-95.061 14.608-97.148 1.957-2.088 22.052-64.189 22.052-64.189h6.293s20.095 62.088 22.051 64.189c1.957 2.087 14.609 97.148 14.609 97.148 17.054 5.866 19.672-2.629 19.672-2.629l-8.197-102.485z" fill="#000"/><path d="M284.635 79.962c2.155 2.1 12.784 5.892 18.403 0l3.807 3.738s-4.336 10.199-11.951 10.555c-7.615.357-13.115-9.075-13.115-9.075l2.856-5.218z" fill="#999"/><path d="M314.723 78.813c12.718-5.47 53.82-20.014 53.82-20.014s27.63-34.584 33.262-39.723c0 0 6.121 1.096 7.906 8.705 0 0-17.795 38.06-27.459 48.958-9.664 10.898-58.645 34.465-58.645 34.465l-8.884-32.391z" fill="#8D8D8D"/><path d="M270.198 78.02c3.781-2.391 22.779 10.304 22.779 10.304s24.695-13.105 30.499-10.568c0 0 5.222 6.988 7.324 24.941 2.102 17.953 2.234 91.864 2.234 91.864s-16.605 5.866-39.066 5.866c-25.608 0-39.383-7.332-39.383-7.332S250.024 90.781 270.198 78.02z" fill="#E4E4E4"/><path d="M285.625 76.105s2.737 8.6 0 11.915c0 0 2.842 5.958 7.945 6.222 5.897.304 7.946-6.222 7.946-6.222s-3.12-8.31 0-11.229l-15.891-.686z" fill="#FDAF9A"/><path d="M278.817 67.636s-5.75-11.07-4.613-22.906c1.136-11.836 18.984-14.545 31.001-8.732 0 0-3.569-3.488-2.168-4.452 1.401-.964 3.807 5.231 3.807 5.231s3.795-1.162 4.376 0c.582 1.163-3.886 1.797-3.886 1.797s7.76 4.293.515 27.187l-29.032 1.876z" fill="#000"/><path d="M277.944 60.622s-4.296-4.28-4.825.727c-.608 5.799 4.654 8.137 5.685 6.288 1.031-1.837-.86-7.015-.86-7.015zM308.007 60.926s4.297-4.28 4.825.726c.609 5.8-4.653 8.138-5.684 6.288-1.032-1.836.859-7.014.859-7.014z" fill="#FFC4B5"/><path d="M292.526 81.626c-9.518 0-14.899-6.222-14.899-24.862 0-9.617 4.891-15.522 15.56-15.522s15.164 5.905 15.164 15.523c0 20.04-5.989 24.861-15.825 24.861z" fill="#FFC4B5"/><path d="M305.192 63.41c.172.95-.674 1.902-1.864 2.113-1.203.211-2.3-.396-2.472-1.36-.172-.952.674-1.903 1.864-2.114 1.203-.199 2.314.41 2.472 1.36zM285.599 63.938c-.066.964-1.097 1.69-2.313 1.611-1.216-.079-2.142-.924-2.076-1.902.066-.964 1.098-1.69 2.314-1.611 1.216.079 2.142.937 2.075 1.902z" fill="#FDAF9A"/><path d="M300.841 53.74a.482.482 0 01-.344-.146c-1.322-1.387-3.635-1.321-3.662-1.321a.492.492 0 01-.489-.462.474.474 0 01.463-.49c.106 0 2.776-.065 4.389 1.626a.479.479 0 01-.013.673.573.573 0 01-.344.12zM282.902 53.74a.46.46 0 01-.331-.133.478.478 0 01-.013-.673c1.613-1.691 4.284-1.625 4.389-1.625a.482.482 0 01.463.489.491.491 0 01-.489.462c-.013 0-2.353-.053-3.662 1.32a.494.494 0 01-.357.16zM300.022 58.786c0 1.175-.529 2.14-1.19 2.14-.661 0-1.189-.965-1.189-2.14 0-1.176.528-2.14 1.189-2.14.648 0 1.19.964 1.19 2.14zM287.292 58.786c0 1.175-.529 2.14-1.19 2.14-.661 0-1.19-.965-1.19-2.14 0-1.176.529-2.14 1.19-2.14.661 0 1.19.964 1.19 2.14zM287.291 71.441s8.395 1.083 12.718-.99c0 0-2.446 5.72-7.033 5.204-4.574-.515-5.685-4.214-5.685-4.214z" fill="#000"/><path d="M307.359 63.04s-.291-10.358-4.337-18.31c0 0-7.112 3.29-8.672 2.51-1.56-.78 1.494-2.51 1.494-2.51s-11.727 3.87-12.44 3.091c-.701-.78 3.886-3.091 3.886-3.091l-7.311 2.51s-2.247 9.313-1.322 15.8c0 0-3.146-5.417-3.529-9.155-.384-3.739 1.256-14.4 12.268-15.179 11.013-.78 17.186 1.717 19.923 6.777 2.737 5.06 2.393 11.268.04 17.556z" fill="#000"/><path d="M294.178 68.442c-.925 0-1.864-.237-2.155-.317l.265-.977c1.005.277 2.565.436 2.908.04.119-.146.066-.463-.132-.886-1.375-2.92-1.666-10.33-1.679-10.647l1.018-.04c0 .08.291 7.517 1.573 10.251.397.833.384 1.506-.013 1.969-.37.475-1.071.607-1.785.607z" fill="#FBA48D"/><path d="M304.668 82.522s17.239 53.475 18.879 96.99c0 0 6.226 1.717 13.233-7.821 7.007-9.538 2.843-85.048-10.589-97.624 0 0-6.095-1.387-21.523 8.455z" fill="#999"/><path d="M307.532 92.036s3.08-7.16 1.719-12.074c-1.375-4.914-6.214 0-6.214 0s1.957 8.045 4.495 12.074z" fill="gray"/><path d="M272.933 78.812c-12.718-5.469-53.82-20.013-53.82-20.013s-27.696-35.602-33.328-40.727c0 0-6.967 3.936-7.443 12.1 0 0 17.398 35.681 27.075 46.58 9.677 10.898 58.645 34.465 58.645 34.465l8.871-32.405z" fill="#8D8D8D"/><path d="M282.928 82.683s-17.239 53.475-18.878 96.99c0 0-6.227 1.717-13.234-7.821-7.006-9.537-2.842-85.047 10.59-97.624 0 0 6.094-1.387 21.522 8.455z" fill="#999"/><path d="M280.066 91.874s-3.08-7.16-1.719-12.074c1.375-4.914 6.214 0 6.214 0s-1.957 8.045-4.495 12.075z" fill="gray"/><path d="M370.09 418h-34.228c-2.393-13.593 1.428-27.213 1.428-27.213l15.653-2.682c1.428 8.6 3.146 11.982 5.513 13.725h.013c1.732 1.255 3.807 1.678 6.385 2.563 2.949 1.031 4.509 2.893 5.289 4.915 1.533 4.029-.053 8.692-.053 8.692z" fill="#000"/><path d="M370.13 409.321c-8.434 1.056-26.983 2.866-25.846-2.022.939-4.082 8.765-5.178 14.159-5.455h.014c1.731 1.254 3.807 1.677 6.385 2.562 2.961 1.031 4.521 2.893 5.288 4.915z" fill="#333"/><path d="M255.458 418H221.23s-1.084-3.197-.582-6.579c.41-2.761 1.878-5.641 5.831-7.015 2.961-1.03 5.235-1.413 7.099-3.157 2.023-1.902 3.543-5.429 4.812-13.144l15.653 2.682c-.013.013 3.794 13.62 1.415 27.213z" fill="#000"/><path d="M220.635 411.421c.41-2.761 1.877-5.641 5.83-7.014 2.961-1.031 5.235-1.414 7.099-3.158 4.337 1.335 10.391 3.778 12.269 7.491 2.617 5.099-17.385 4.293-25.198 2.681z" fill="#333"/><path d="M501.196 415.556c0 1.44-.145 2.444-.145 2.444h-41.578c0-.819.013-1.638.053-2.444.475-10.872 3.9-20.304 3.9-20.304l10.391-4.465c.899 5.35 3.199 8.771 6.094 11.004.767.608 1.56 1.096 2.38 1.519.383.212.767.397 1.163.568.873.397 1.759.714 2.658.978 3.675 1.109 7.377 1.347 9.981 1.744 4.429.713 5.103 5.839 5.103 8.956z" fill="#000"/><path d="M501.196 415.556c0 1.44-.145 2.444-.145 2.444h-41.578c0-.819.013-1.638.053-2.444h41.67zM482.291 403.323l-5.764 1.85-1.216-2.114 4.613-1.255a14.58 14.58 0 002.367 1.519zM486.098 404.882l-3.887 2.576-2.393-.938 3.623-2.629c.872.397 1.771.727 2.657.991z" fill="#333"/><path d="M342.314 415.556c-.106 1.414-.476 2.444-.476 2.444h-27.697a11.947 11.947 0 01-.78-2.444c-2.736-13.25 15.68-29.446 15.68-29.446l5.843 7.794s-.674 12.471 4.27 15.06c2.975 1.546 3.358 4.478 3.16 6.592z" fill="#000"/><path d="M313.375 415.556h28.939c-.105 1.414-.476 2.444-.476 2.444h-27.696a12.755 12.755 0 01-.767-2.444zM337.898 407.96s-11.673-2.655-16.988.78v-1.929c0 .013 9.81-4.756 16.988 1.149z" fill="#333"/><path d="M335.585 405.001s-7.457-3.408-14.675 0l.82-1.942s8.633-3.25 13.855 1.942z" fill="#333"/><path d="M488.65 297.813c.014 11.136-9.875 101.891-9.875 101.891-9.889.977-17.821-1.004-17.821-1.004-2.71-45.999-2.975-85.55-2.975-85.55l-47.408-35.509-.119-.093s-.172.806-.502 2.246c-2.353 10.41-12.282 54.03-16.42 64.017-4.706 11.387-56.226 59.248-56.226 59.248-9.571-1.321-17.689-8.243-17.689-8.243 18.495-30.648 43.707-61.402 43.707-61.402 1.97-11.043 3.371-35.615 4.217-53.977l.04-.845c.555-12.444.833-21.824.833-21.824l-8.686-17.807 55.208-20.265 12.374 15.826s2.829 2.629 7.298 6.817c.211.185.41.383.621.568 16.552 15.628 53.423 50.912 53.423 55.906z" fill="#999"/><path d="M367.525 279.451l.04-.846c11.621-6.301 9.677-16.367 9.638-16.473l.714-.145c.039.092 2.128 10.911-10.392 17.464zM409.711 270.533c.396 2.207.687 4.571.846 7.108l-.119-.093s-.172.806-.502 2.246c-.516-17.253-7.629-27.438-7.721-27.557l.608-.422c.079.092 4.561 6.565 6.742 17.873 8.395-7.451.172-22.722.093-22.867l.648-.357c.079.172 8.778 16.341-.595 24.069z" fill="#999"/><path d="M435.201 241.92c-.013.013-.04.013-.053.026-.344.133-.74.185-1.15.185-4.072 0-10.894-5.693-11.211-5.971l.489-.555c2.221 1.876 8.395 6.381 11.317 5.734.198.198.41.383.608.581z" fill="#6097B2"/><path d="M363.572 144.032s16.79-2.695 25.211 2.655c8.409 5.363 19.461 19.353 19.461 19.353s-13.115 1.731-14.595 10.634c0 0-9.532-22.682-30.077-32.642z" fill="#D0D0D0"/><path d="M338.321 152.777c-7.099 3.831-18.971 18.243-19.513 27.107-.529 8.64 5.883 16.593 10.206 23.343 13.472 21.084 27.67 39.71 33.699 64.44.039.158 30.816 12.365 66.948-31.031 0 0-20.413-27.451-27.472-50.82-2.869-9.511-5.791-19.617-11.304-27.993-6.068-9.234-16.472-14.663-27.3-13.791-9.161.74-18.27 4.967-25.264 8.745z" fill="#E4E4E4"/><path d="M335.334 143.939s4.548 7.755 2.446 12.022c0 0 15.587 5.376 15.587-3.343 0 0-2.935-6.539-1.825-10.753l-16.208 2.074zM369.984 197.058s-8.673 2.457-10.868 5.535c-2.194 3.065-4.137 9.947-4.137 9.947h14.991l2.816-5.178 3.305-6.909-6.107-3.395z" fill="#FDAF9A"/><path d="M355.641 135.287s6.094-2.55 2.155-20.846c-2.605-12.127-6.373-13.937-8.792-14.043 0 0-2.974-4.478-13.286-2.338-7.06 1.466-12.692 5.746-15.177 13.686-2.591 8.27 2.591 26.011 9.413 27.781l25.687-4.24z" fill="#000"/><path d="M357.081 122.922s3.834-5.337 5.289-.08c1.678 6.09-3.544 9.525-4.971 7.729-1.428-1.784-.318-7.649-.318-7.649zM324.982 128.549s-5.354-3.817-5.024 1.625c.37 6.315 6.425 7.874 7.192 5.72.767-2.153-2.168-7.345-2.168-7.345z" fill="#FFC4B5"/><path d="M345.196 147.955c10.193-1.677 14.847-9.273 11.555-29.221-1.692-10.291-7.985-15.733-19.394-13.858-11.409 1.876-15.177 8.983-13.485 19.274 3.543 21.427 10.801 25.536 21.324 23.805z" fill="#FFC4B5"/><path d="M328.42 130.703c-.013 1.056 1.058 1.915 2.366 1.928 1.323.013 2.393-.832 2.407-1.889.013-1.057-1.045-1.915-2.367-1.929-1.322 0-2.393.846-2.406 1.89zM349.479 127.81c.238 1.03 1.468 1.611 2.75 1.321 1.282-.304 2.128-1.374 1.89-2.391-.237-1.031-1.467-1.612-2.763-1.322-1.269.291-2.128 1.361-1.877 2.392z" fill="#FDAF9A"/><path d="M331.289 119.593a.478.478 0 01-.291-.093.509.509 0 01-.132-.713c1.428-2.087 4.283-2.484 4.402-2.51a.505.505 0 01.582.449.517.517 0 01-.449.581c-.027 0-2.525.357-3.689 2.061a.49.49 0 01-.423.225zM350.472 116.436a.608.608 0 01-.317-.106c-1.653-1.242-4.125-.78-4.151-.766a.513.513 0 01-.608-.41.523.523 0 01.41-.608c.119-.026 2.961-.568 4.97.965a.522.522 0 01.106.726.493.493 0 01-.41.199zM333.153 124.851c.211 1.268.951 2.192 1.652 2.074.701-.119 1.097-1.229.899-2.497-.211-1.268-.952-2.193-1.652-2.074-.714.105-1.111 1.228-.899 2.497zM346.756 122.605c.212 1.268.952 2.193 1.653 2.074.7-.119 1.097-1.229.899-2.497-.212-1.268-.952-2.193-1.653-2.074-.714.106-1.11 1.229-.899 2.497zM350.578 134.084s-8.845 2.365-13.736 1.427c0 0 3.384 4.267 8.223 3.039 4.839-1.229 5.513-4.466 5.513-4.466z" fill="#000"/><path d="M350.986 109.474s-11.502 8.322-25.938 8.956l.41 12.841s-13.459-24.77 13.154-29.169c26.612-4.386 18.865 23.29 18.865 23.29s-.819-11.929-6.491-15.918z" fill="#000"/><path d="M341.588 130.637l-.079-1.11c.013 0 1.546-.119 1.943-1.07.159-.396-.489-1.638-1.071-2.735-.806-1.532-1.798-3.434-2.221-5.535l1.097-.224c.397 1.955 1.349 3.778 2.116 5.244.859 1.625 1.467 2.814 1.11 3.686-.661 1.585-2.802 1.73-2.895 1.744z" fill="#FBA48D"/><path d="M357.227 109.5c-19.341-8.388-37.599 9.01-37.599 9.01s-2.128-14.096 1.6-17.398a21.563 21.563 0 013.094-2.299c8.54-5.377 19.909-5.284 25.118-3.435 1.071.383 1.891.832 2.367 1.321 3.08 3.197 5.42 12.801 5.42 12.801z" fill="#999"/><path d="M354.887 106.369s-16.247-3.21-31.398 6.804c0 0-.965-9.089.833-14.36 8.54-5.377 19.91-5.284 25.119-3.435 3.04 3.461 5.446 10.991 5.446 10.991z" fill="#DFE3EA"/><path d="M321.229 116.858s2.577-10.925 6.041-14.016c5.778-5.126 21.999-6.882 30.513-3.804 8.514 3.078 0 12.391 0 12.391s-13.578-9.723-36.554 5.429z" fill="#999"/><path d="M346.319 189.488s6.636 10.278 17.953 16.328c0 0 14.146-12.272 32.496-11.162 0 0-15.204 27.411-28.265 30.449-6.862 1.599-31.663-14.822-31.663-14.822s4.944-17.451 9.479-20.793z" fill="#FFC4B5"/><path d="M321.862 170.862c6.081-9.882 20.095 4.729 24.867 15.165 4.773 10.436 8.25 12.656 8.25 12.656s-14.014 5.852-13.908 16.341c0-.013-32.469-22.59-19.209-44.162z" fill="#D0D0D0"/><path d="M364.26 201.298s8.527-8.362 36.594-19.287l-3.623-11.387c3.213-4.227 9.136-4.227 9.136-4.227s14.37 20.278 11.898 26.341c-1.547 3.791-31.531 7.754-54.005 8.56z" fill="#FDAF9A"/><path d="M394.996 184.746s.225-1.202 1.256-2.655c1.031-1.467.754-4.122 1.124-4.954.37-.819 2.578-4.201 4.045-4.848 1.468-.661 3.385-1.731 3.794.132.41 1.862-2.617 1.334-3.979 4.003 0 0 2.975-.965 5.341-.41 2.367.555 3.028 2.721.119 2.642-2.327-.053-5.328 1.599-5.328 1.599s3.041.462 2.552 1.849c-.701 1.955-4.403.753-8.924 2.642z" fill="#FFC4B5"/><path d="M187.491 222.937c2.512 6.42 12.784 17.411 12.784 17.411s25.092-15.033 36.673-8.706c11.581 6.328 20.782 10.186 28.292 7.425 7.509-2.761-24.696-61.27-24.696-61.27l-41.75-15.918s-.912 10.555-5.685 12.431c-4.772 1.876-9.862 19.287-9.518 22.589.357 3.303 3.9 26.038 3.9 26.038z" fill="#999"/><path d="M234.461 240.731s-10.761 21.084-32.985 48.086c0 0-2.274 32.114-61.051 82.643l-6.148-4.835s34.995-54.783 42.001-71.586c7.007-16.804-3.873-32.194 28.332-74.678l29.851 20.37z" fill="#FFCABC"/><path d="M200.195 203.425c-9.267 17.742-12.374 40.411-12.374 40.411l-4.217 10.634s14.965 8.071 32.257 11.004l6.928-18.336-22.594-43.713z" fill="#111"/><path d="M248.53 239.08s4.587 23.224 3.834 58.178c0 0 18.085 26.645 3.159 102.67h-7.826s-6.399-64.677-11.29-82.207c-4.892-17.53-22.964-22.907-23.942-76.197l36.065-2.444z" fill="#FFCABC"/><path d="M253.116 264.008s-14.727 2.642-40.652 1.427l-.41-2.919-.106-.753-2.684-18.891s-2.498-3.078-5.063-8.098a39.232 39.232 0 01-.899-1.823c-3.49-7.437-6.597-18.243-3.107-29.525l5.473.251.767.04 18.323.832.78.04 6.016.277.938.04 3.9.171s19.844 17.847 16.301 50.847l.251 4.597.027.753.145 2.734z" fill="#1F1F1F"/><path d="M206.435 203.729c-.515 1.506-3.979 12.722-2.234 31.044a39.232 39.232 0 01-.899-1.823c-1.309-16.764 1.706-27.226 2.367-29.274.092-.251.132-.37.132-.383l.687.251c0 .013-.026.079-.053.185zM252.971 261.286c-5.208 1.335-14.053 1.704-22.448 1.704-7.535 0-14.674-.303-18.482-.488l-.105-.753c6.596.317 23.942 1.004 35.126-.225l-.714-11.81c.172-13.778-3.992-25.535-8.011-33.66-10.193-1.849-12.996-9.392-13.591-11.519a6.692 6.692 0 01-.132-.555l.714-.119c0 .013.053.278.185.714.661 2.206 3.384 8.758 12.387 10.634-2.71-5.297-5.288-8.917-6.372-10.357a11.32 11.32 0 00-.542-.7l.555-.476c.027.027.37.436.926 1.216 3.411 4.623 14.899 21.995 14.608 44.783l.714 11.743c1.957-.237 3.702-.528 5.143-.911l.039.779z" fill="#000"/><path d="M215.48 123.846c-5.844-3.21-47.937 13.277-47.937 13.277s-6.227 11.096-2.34 15.456c3.886 4.346 17.662 2.431 21.879 0 4.218-2.431 15.402-4.28 15.402-4.28l12.996-24.453z" fill="#DDD"/><path d="M252.694 88.826s8.699 3.355 11.872 13.369c3.186 10.013-6.333 35.351-3.041 47.002 3.292 11.651 2.776 33.647-7.483 38.297-10.259 4.65-31.319-3.673-35.84-16.381-4.521-12.708-2.565-60.873 6.121-77.24 8.699-16.381 26.282-8.125 28.371-5.047z" fill="#000"/><path d="M242.713 132.024c2.287 2.47 8.196-1.929 8.196-1.929s-.119 21.85-6.478 23.514c-6.359 1.678-22.554-17.213-21.879-22.338.661-5.139 15.071-4.73 20.161.753z" fill="#999"/><path d="M218.214 126.568s6.425 5.456 17.622 8.045c11.198 2.589 17.266-2.669 22.99 4.544 8.594 10.833-5.393 30.793-12.744 41.137-2.737 3.858-8.527 14.558-9.704 24.809 0 0-19.434 5.641-36.184-1.678l-1.256-23.818c.013 0-10.55-32.101 19.276-53.039z" fill="#000"/><path d="M200 203.5c4.5 2.333 18 5.9 36 1.5" stroke="#DDD" stroke-width="2"/><path d="M238.297 149.739s8.871-21.137 11.449-22.484c2.564-1.348 9.095 1.889 10.404 4.782 1.309 2.893 0 9.194 0 9.194s-7.007-7.992-21.853 8.508z" fill="#DDD"/><path d="M280.813 239.067c-4.032 8.256-13.947 10.634-13.947 10.634s-.754-1.149-2.009-3.197c-.133-.211-.278-.436-.41-.674-7.8-12.629-31.61-53.039-31.147-74.057.542-25.112 16.935-38.891 16.935-38.891 8.329 1.982 10.946 4.254 10.946 4.254s2.803 14.28.238 31.48c-2.564 17.174-7.231 21.718-4.891 23.012 2.34 1.282 0 3.845 0 3.845s13.815 19.234 16.393 25.218c1.679 3.897 4.521 10.529 6.293 14.664.119.29.238.581.357.845.767 1.744 1.242 2.867 1.242 2.867z" fill="#999"/><path d="M256.832 137.136s-9.889 7.332-4.125 18.521l27.406 28.362c-15.045 16.024-16.539 22.603-27.406 29.988l4.125 6.393s38.087-29.247 38.14-36.367c.027-3.078-23.268-39.935-38.14-46.897z" fill="#FFBBA9"/><path d="M252.098 213.993s-5.222.582-8.513 1.401c-3.292.819-7.682 1.638-7.814 2.325-.132.687 7.271 0 7.271 0s-6.028 2.47-6.173 3.434c-.133.952 7.681-.687 7.681-.687s-4.932 3.012-4.667 3.831c.277.819 6.359-1.228 6.359-1.228s-1.137 2.88-2.301 4.24c0 0 1.177.648 3.57-2.008 2.393-2.655 6.2-1.796 9.228-4.148 3.001-2.351-1.891-7.516-4.641-7.16z" fill="#FFBBA9"/><path d="M224.084 130.082s-7.522 4.861-12.281 16.592c-4.746 11.731-19.752 33.818-23.255 39.512-3.517 5.707-1.071 36.751-1.071 36.751s-4.402-18.825-6.359-26.157c-1.956-7.331 6.32-25.456 7.562-26.42 1.243-.964 7.602.792 6.386-6.566-1.217-7.358 15.838-39.062 20.399-39.948.013 0 7.31 1.374 8.619 6.236zM200.831 131.667a6.246 6.246 0 01-.45.74c-1.705 2.444-4.878 4.399-4.878 4.399s-5.738 8.032-5.804 8.956c-.053.793-9.968 7.979-14.371 7.834h-.013c-.608-.013-1.097-.172-1.454-.502-2.618-2.47 8.897-23.144 11.436-27.61.158-.29.29-.515.383-.66.053-.119.106-.185.106-.185s-2.023-7.543 6.425-6.13c7.033 1.163 8.421 6.751 9.162 10.489.171.899-.08 1.797-.542 2.669z" fill="#999"/><path d="M171.308 139.488c5.804-7.623 26.243-22.418 37.004-26.804l2.697 4.993s-20.796 18.27-25.687 26.091c-4.892 7.82-10.933 11.043-16.724 8.441-5.79-2.602 1.481-11.123 2.71-12.721z" fill="#FFBBA9"/><path d="M198.795 130.095l-1.097 1.255-.556.647-1.824 2.087s-4.574 5.549-4.402 7.768c.132 1.599-8.686 8.759-15.587 11.731-2.803 1.215-5.301 1.744-6.756.911-4.984-2.879-3.873-11.519-1.044-17.371 2.472-5.099 13.366-11.691 16.182-13.303.357-.225.568-.357.647-.383l.014-.013 1.044-4.043s3.807-2.285 6.795-.885c0 0-6.61.278-5.513 2.841 1.111 2.602 10.273 8.665 12.097 8.758z" fill="#DDD"/><path d="M222.776 108.932c-6.65 2.734-5.698 8.745-11.793 8.745-3.768 0-4.27-4.306-4.27-4.306 1.705-3.686 2.789-9.961 3.027-12.946.252-2.986 1.243-1.837 1.243-1.837 0-.277-.013-.541-.026-.805-.093-2.008-.45-3.475.859-2.616 1.494.964 2.009 6.658 2.009 6.658 1.23-8.296-.608-9.538.833-8.798 1.97 1.004 1.983 8.335 1.983 8.547 1.587-4.822 1.164-7.583 2.261-6.486 1.111 1.11-.555 9.973-1.216 13.223a38.58 38.58 0 01-.251 1.189c5.288-2.576 5.341-.568 5.341-.568z" fill="#FFBBA9"/><path d="M217.699 108.311c-.145.74-.251 1.189-.251 1.189s-2.433-.238-4.218 2.391c.014 0 .516-3.514 4.469-3.58zM211.367 104.533c.04-.7.344-4.743-.37-5.958 0-.277-.013-.541-.026-.806 1.52.33.555 5.918.396 6.764z" fill="#FDAF9A"/><path d="M215.492 139.527s4.495-12.167 5.923-14.888 8.871-2.246 14.516-1.202c5.632 1.057 6.782 8.587 6.782 8.587s-17.147-8.085-27.221 7.503z" fill="#DDD"/><path d="M244.417 115.577s-5.38 9.934-5.301 20.951c0 0-8.739 5.945-11.872-1.506 0 0 3.318-9.749 1.719-22.893-1.071-8.811 15.454 3.448 15.454 3.448z" fill="#FDAF9A"/><path d="M227.258 101.785s-1.6-5.693-4.442-1.691c-3.292 4.637.066 9.142 1.825 8.072 1.745-1.07 2.617-6.381 2.617-6.381zM252.669 116.436s5.698-1.586 3.754 2.919c-2.26 5.218-7.853 4.69-7.853 2.629.014-2.061 4.099-5.548 4.099-5.548z" fill="#FFBAA7"/><path d="M229.584 126.621c-8.104-4.558-9.69-12.418-.753-28.27 4.614-8.178 11.594-10.846 20.676-5.747 9.069 5.1 10.061 12.272 5.46 20.45-9.611 17.041-17.014 18.283-25.383 13.567z" fill="#FFC4B5"/><path d="M249.085 117.202c-.317.898-1.481 1.294-2.591.898-1.124-.396-1.772-1.44-1.454-2.338.317-.899 1.48-1.295 2.591-.899 1.123.397 1.771 1.44 1.454 2.339zM232.177 108.272c-.516.792-1.745.911-2.737.264-.991-.648-1.375-1.81-.859-2.616.515-.792 1.745-.911 2.736-.264.992.647 1.388 1.823.86 2.616z" fill="#EFA894"/><path d="M250.248 106.951a.466.466 0 01-.45-.357c-.462-1.81-2.459-2.867-2.485-2.88a.46.46 0 01.423-.819c.093.053 2.393 1.268 2.948 3.474a.471.471 0 01-.33.568c-.027 0-.067.014-.106.014z" fill="#000"/><path d="M239.129 99.038a.542.542 0 01-.238-.066c-.013-.014-1.97-1.176-3.754-.621a.466.466 0 01-.582-.304.465.465 0 01.304-.581c2.181-.66 4.416.66 4.508.726a.458.458 0 01.159.634.484.484 0 01-.397.212z" fill="#1A4850"/><path d="M246.904 110.795c-.569 1.004-1.481 1.558-2.036 1.255-.555-.317-.555-1.387.013-2.391.569-1.004 1.481-1.559 2.036-1.255.555.303.555 1.373-.013 2.391zM235.546 104.705c-.568 1.004-1.48 1.559-2.035 1.255-.556-.317-.556-1.387.013-2.391.568-1.004 1.48-1.559 2.036-1.255.555.317.555 1.387-.014 2.391zM231.608 115.022s4.654 3.54 8.012 3.646c0 0-3.57 2.906-6.134 1.017-2.578-1.876-1.878-4.663-1.878-4.663z" fill="#000"/><path d="M244.457 108.76s2.128-2.06 3.001-1.334c.873.727.41 3.263.41 3.263l1.864.053-1.547-.621s.503-2.629-.463-3.184c-1.348-.779-3.265 1.823-3.265 1.823zM236.419 104.639s.662-2.893-.409-3.263c-1.071-.37-3.001 1.334-3.001 1.334l-1.005-1.572 1.335.991s1.996-1.797 2.962-1.255c1.361.779.118 3.765.118 3.765z" fill="#000"/><path d="M251.651 96s-2.896-4.03-6.915-.833c-4.005 3.197-13.048 8.322-17.49 6.632-4.442-1.691 9.73-20.622 22.038-15.073 12.308 5.548 11.198 23.593 6.082 29.326-5.117 5.734-2.697.397-2.697.397s.343-8.138 2.049-13.541c1.718-5.403-3.067-6.909-3.067-6.909z" fill="#000"/><path d="M238.005 113.173c-.224 0-.462-.027-.7-.093l.251-.977c.833.211 1.229-.146 1.428-.476.277-.476.238-1.083.013-1.308-.132-.132-.344-.119-.648.04l-.463-.885c1.018-.529 1.626-.066 1.838.158.555.581.608 1.678.119 2.51-.383.674-1.044 1.031-1.838 1.031z" fill="#FBA48D"/><path d="M297.325 182.883c-.489 7.107-18.099 30.278-21.034 31.097-.766.212-1.546.634-2.273 1.123-.304.225-.622.449-.913.687-1.679 1.348-2.935 2.906-2.935 2.906-5.142-.343-19.566-7.014-14.925-8.481.277-.092.581-.251.925-.488.185-.133.397-.278.608-.476 5.46-4.571 16.089-23.144 16.156-24.558.052-1.546 1.89-1.836 1.89-1.836s-10.021-14.716-15.838-16.487c-5.817-1.77-8.752-8.798-8.752-8.798-5.737-24.267 10.947-20.462 10.947-20.462 12.308 7.345 36.633 38.64 36.144 45.773z" fill="#DDD"/><path d="M274.017 215.103c-.304.225-.621.449-.912.687-7.879-.542-14.489-4.412-16.935-6.063.185-.133.397-.278.608-.476 2.631 1.731 9.347 5.562 17.239 5.852zM200.83 131.667a6.116 6.116 0 01-.45.74 17.935 17.935 0 01-3.225-.397c-5.209-1.056-9.215-3.976-11.846-6.512-.608-.581-1.124-1.15-1.586-1.652.357-.224.568-.356.647-.383.384.423.82.899 1.322 1.374 2.618 2.563 6.677 5.562 12.018 6.526.991.185 2.022.291 3.12.304zM279.583 236.2c-2.42 4.095-6.901 9.036-14.728 10.317-.132-.211-.277-.436-.41-.674 8.025-1.202 12.48-6.407 14.781-10.489.119.291.238.582.357.846z" fill="#3E6575"/><path d="M146.005 369.65s-1.837 1.81-3.741 5.113c-1.904 3.315.185 6.367-9.043 14.055 0 0-18.627-10.898-27.035-24.901 0 0 .145-4.003 4.217-4.941 2.181-.502 8.21 2.312 13.987 3.409.82.145 1.639.277 2.446.343 1.018.093 2.009.106 2.961-.013.886-.093 1.719-.278 2.499-.608h.013c1.97-.806 3.517-2.404 4.336-5.205 0 0 4.945 2.814 1.64 7.583 0-.013 5.869-2.576 7.72 5.165z" fill="#DDD"/><path d="M133.221 388.818s-18.627-10.898-27.035-24.901c0 0 3.12-.661 5.711 3.976 2.578 4.65 22.831 15.192 21.324 20.925zM133.287 366.784c-1.507 2.391-1.481-2.022-3.49-4.096.886-.092 1.719-.277 2.499-.607h.013c.899.977 2.168 2.84.978 4.703zM127.431 366.916c-1.6 1.506-2.115-2.431-3.054-4.545.82.146 1.639.278 2.446.344.952 1.268 1.824 3.051.608 4.201z" fill="#999"/><path d="M260.599 418h-26.348s-1.097-3.672 0-7.702c.476-1.743 3.2-3.368 5.738-5.64a22.337 22.337 0 002.009-2.035c.503-.581.952-1.228 1.336-1.915a9.126 9.126 0 001.084-2.748c.423-1.995.264-4.346-.886-7.16 0 0 8.963-1.876 12.163 3.012 0 0 .304-2.259 3.159-.753 0 0-.409 4.531.146 8.336.568 3.778 4.098 4.874 1.599 16.605z" fill="#DDD"/><path d="M253.738 402.148a1.177 1.177 0 01-.886.396c-.277 0-.542-.093-.78-.264-1.362-1.084-4.376-2.775-8.752-1.586a9.094 9.094 0 001.084-2.747c1.759-.648 5.077-1.031 9.175 2.47.542.449.608 1.215.159 1.731zM251.516 406.52l-.145.225a1.21 1.21 0 01-1.613.396c-1.785-1.057-5.817-3.051-9.77-2.483a22.608 22.608 0 002.01-2.035c1.956-.449 5.632-.7 9.267 2.299.463.396.595 1.083.251 1.598z" fill="#999"/></g><defs><clipPath id="clip0"><path fill="#fff" d="M0 0h624v418H0z"/></clipPath></defs></svg>